solid OpenSCAD_Model
  facet normal 0 -1 0
    outer loop
      vertex 20.1 0 0
      vertex 22 0 30
      vertex 20.1 0 30
    endloop
  endfacet
  facet normal 0 -1 -0
    outer loop
      vertex 22 0 30
      vertex 20.1 0 0
      vertex 22 0 0
    endloop
  endfacet
  facet normal -0.866032 0.499988 0
    outer loop
      vertex 10.05 17.4071 0
      vertex 11 19.0526 30
      vertex 11 19.0526 0
    endloop
  endfacet
  facet normal -0.866032 0.499988 0
    outer loop
      vertex 11 19.0526 30
      vertex 10.05 17.4071 0
      vertex 10.05 17.4071 30
    endloop
  endfacet
  facet normal 0.994521 0.104539 0
    outer loop
      vertex 22 0 30
      vertex 21.5192 4.57406 0
      vertex 21.5192 4.57406 30
    endloop
  endfacet
  facet normal 0.994521 0.104539 0
    outer loop
      vertex 21.5192 4.57406 0
      vertex 22 0 30
      vertex 22 0 0
    endloop
  endfacet
  facet normal 0.95106 0.309008 0
    outer loop
      vertex 21.5192 4.57406 30
      vertex 20.098 8.94821 0
      vertex 20.098 8.94821 30
    endloop
  endfacet
  facet normal 0.95106 0.309008 0
    outer loop
      vertex 20.098 8.94821 0
      vertex 21.5192 4.57406 30
      vertex 21.5192 4.57406 0
    endloop
  endfacet
  facet normal 0.866029 0.499994 0
    outer loop
      vertex 20.098 8.94821 30
      vertex 17.7984 12.9313 0
      vertex 17.7984 12.9313 30
    endloop
  endfacet
  facet normal 0.866029 0.499994 0
    outer loop
      vertex 17.7984 12.9313 0
      vertex 20.098 8.94821 30
      vertex 20.098 8.94821 0
    endloop
  endfacet
  facet normal 0.743144 0.669132 0
    outer loop
      vertex 17.7984 12.9313 30
      vertex 14.7209 16.3492 0
      vertex 14.7209 16.3492 30
    endloop
  endfacet
  facet normal 0.743144 0.669132 0
    outer loop
      vertex 14.7209 16.3492 0
      vertex 17.7984 12.9313 30
      vertex 17.7984 12.9313 0
    endloop
  endfacet
  facet normal 0 0 1
    outer loop
      vertex 21.5192 4.57406 30
      vertex 20.1 0 30
      vertex 22 0 30
    endloop
  endfacet
  facet normal 0 0 1
    outer loop
      vertex 19.6608 4.17902 30
      vertex 21.5192 4.57406 30
      vertex 20.098 8.94821 30
    endloop
  endfacet
  facet normal 0 0 1
    outer loop
      vertex 21.5192 4.57406 30
      vertex 19.6608 4.17902 30
      vertex 20.1 0 30
    endloop
  endfacet
  facet normal 0 0 1
    outer loop
      vertex 20.098 8.94821 30
      vertex 18.3623 8.17541 30
      vertex 19.6608 4.17902 30
    endloop
  endfacet
  facet normal 0 0 1
    outer loop
      vertex 17.7984 12.9313 30
      vertex 18.3623 8.17541 30
      vertex 20.098 8.94821 30
    endloop
  endfacet
  facet normal 0 0 1
    outer loop
      vertex 17.7984 12.9313 30
      vertex 16.2612 11.8145 30
      vertex 18.3623 8.17541 30
    endloop
  endfacet
  facet normal 0 0 1
    outer loop
      vertex 14.7209 16.3492 30
      vertex 16.2612 11.8145 30
      vertex 17.7984 12.9313 30
    endloop
  endfacet
  facet normal 0 0 1
    outer loop
      vertex 14.7209 16.3492 30
      vertex 13.4495 14.9372 30
      vertex 16.2612 11.8145 30
    endloop
  endfacet
  facet normal 0 0 1
    outer loop
      vertex 11 19.0526 30
      vertex 13.4495 14.9372 30
      vertex 14.7209 16.3492 30
    endloop
  endfacet
  facet normal 0 0 1
    outer loop
      vertex 13.4495 14.9372 30
      vertex 11 19.0526 30
      vertex 10.05 17.4071 30
    endloop
  endfacet
  facet normal 0.587786 0.809016 -0
    outer loop
      vertex 14.7209 16.3492 0
      vertex 11 19.0526 30
      vertex 14.7209 16.3492 30
    endloop
  endfacet
  facet normal 0.587786 0.809016 0
    outer loop
      vertex 11 19.0526 30
      vertex 14.7209 16.3492 0
      vertex 11 19.0526 0
    endloop
  endfacet
  facet normal 0 0 -1
    outer loop
      vertex 20.1 0 0
      vertex 21.5192 4.57406 0
      vertex 22 0 0
    endloop
  endfacet
  facet normal 0 0 -1
    outer loop
      vertex 19.6608 4.17902 0
      vertex 21.5192 4.57406 0
      vertex 20.1 0 0
    endloop
  endfacet
  facet normal -0 0 -1
    outer loop
      vertex 21.5192 4.57406 0
      vertex 19.6608 4.17902 0
      vertex 20.098 8.94821 0
    endloop
  endfacet
  facet normal 0 0 -1
    outer loop
      vertex 18.3623 8.17541 0
      vertex 20.098 8.94821 0
      vertex 19.6608 4.17902 0
    endloop
  endfacet
  facet normal 0 0 -1
    outer loop
      vertex 18.3623 8.17541 0
      vertex 17.7984 12.9313 0
      vertex 20.098 8.94821 0
    endloop
  endfacet
  facet normal 0 0 -1
    outer loop
      vertex 16.2612 11.8145 0
      vertex 17.7984 12.9313 0
      vertex 18.3623 8.17541 0
    endloop
  endfacet
  facet normal 0 0 -1
    outer loop
      vertex 16.2612 11.8145 0
      vertex 14.7209 16.3492 0
      vertex 17.7984 12.9313 0
    endloop
  endfacet
  facet normal 0 0 -1
    outer loop
      vertex 13.4495 14.9372 0
      vertex 14.7209 16.3492 0
      vertex 16.2612 11.8145 0
    endloop
  endfacet
  facet normal 0 0 -1
    outer loop
      vertex 13.4495 14.9372 0
      vertex 11 19.0526 0
      vertex 14.7209 16.3492 0
    endloop
  endfacet
  facet normal 0 -0 -1
    outer loop
      vertex 11 19.0526 0
      vertex 13.4495 14.9372 0
      vertex 10.05 17.4071 0
    endloop
  endfacet
  facet normal -0.994523 -0.104521 0
    outer loop
      vertex 20.1 0 0
      vertex 19.6608 4.17902 30
      vertex 19.6608 4.17902 0
    endloop
  endfacet
  facet normal -0.994523 -0.104521 0
    outer loop
      vertex 19.6608 4.17902 30
      vertex 20.1 0 0
      vertex 20.1 0 30
    endloop
  endfacet
  facet normal -0.951057 -0.309016 0
    outer loop
      vertex 19.6608 4.17902 0
      vertex 18.3623 8.17541 30
      vertex 18.3623 8.17541 0
    endloop
  endfacet
  facet normal -0.951057 -0.309016 0
    outer loop
      vertex 18.3623 8.17541 30
      vertex 19.6608 4.17902 0
      vertex 19.6608 4.17902 30
    endloop
  endfacet
  facet normal -0.866018 -0.500013 0
    outer loop
      vertex 18.3623 8.17541 0
      vertex 16.2612 11.8145 30
      vertex 16.2612 11.8145 0
    endloop
  endfacet
  facet normal -0.866018 -0.500013 0
    outer loop
      vertex 16.2612 11.8145 30
      vertex 18.3623 8.17541 0
      vertex 18.3623 8.17541 30
    endloop
  endfacet
  facet normal -0.743144 -0.669132 0
    outer loop
      vertex 16.2612 11.8145 0
      vertex 13.4495 14.9372 30
      vertex 13.4495 14.9372 0
    endloop
  endfacet
  facet normal -0.743144 -0.669132 0
    outer loop
      vertex 13.4495 14.9372 30
      vertex 16.2612 11.8145 0
      vertex 16.2612 11.8145 30
    endloop
  endfacet
  facet normal -0.587788 -0.809015 0
    outer loop
      vertex 10.05 17.4071 0
      vertex 13.4495 14.9372 30
      vertex 10.05 17.4071 30
    endloop
  endfacet
  facet normal -0.587788 -0.809015 -0
    outer loop
      vertex 13.4495 14.9372 30
      vertex 10.05 17.4071 0
      vertex 13.4495 14.9372 0
    endloop
  endfacet
  facet normal 0.866032 -0.499988 0
    outer loop
      vertex 10.05 17.4071 30
      vertex 11 19.0526 0
      vertex 11 19.0526 30
    endloop
  endfacet
  facet normal 0.866032 -0.499988 0
    outer loop
      vertex 11 19.0526 0
      vertex 10.05 17.4071 30
      vertex 10.05 17.4071 0
    endloop
  endfacet
  facet normal -0.866032 -0.499988 0
    outer loop
      vertex -10.05 17.4071 0
      vertex -11 19.0526 30
      vertex -11 19.0526 0
    endloop
  endfacet
  facet normal -0.866032 -0.499988 0
    outer loop
      vertex -11 19.0526 30
      vertex -10.05 17.4071 0
      vertex -10.05 17.4071 30
    endloop
  endfacet
  facet normal 0.406721 0.913552 -0
    outer loop
      vertex 11 19.0526 0
      vertex 6.79837 20.9232 30
      vertex 11 19.0526 30
    endloop
  endfacet
  facet normal 0.406721 0.913552 0
    outer loop
      vertex 6.79837 20.9232 30
      vertex 11 19.0526 0
      vertex 6.79837 20.9232 0
    endloop
  endfacet
  facet normal 0.207925 0.978145 -0
    outer loop
      vertex 6.79837 20.9232 0
      vertex 2.29963 21.8795 30
      vertex 6.79837 20.9232 30
    endloop
  endfacet
  facet normal 0.207925 0.978145 0
    outer loop
      vertex 2.29963 21.8795 30
      vertex 6.79837 20.9232 0
      vertex 2.29963 21.8795 0
    endloop
  endfacet
  facet normal 0 1 -0
    outer loop
      vertex 2.29963 21.8795 0
      vertex -2.29963 21.8795 30
      vertex 2.29963 21.8795 30
    endloop
  endfacet
  facet normal 0 1 0
    outer loop
      vertex -2.29963 21.8795 30
      vertex 2.29963 21.8795 0
      vertex -2.29963 21.8795 0
    endloop
  endfacet
  facet normal -0.207925 0.978145 0
    outer loop
      vertex -2.29963 21.8795 0
      vertex -6.79837 20.9232 30
      vertex -2.29963 21.8795 30
    endloop
  endfacet
  facet normal -0.207925 0.978145 0
    outer loop
      vertex -6.79837 20.9232 30
      vertex -2.29963 21.8795 0
      vertex -6.79837 20.9232 0
    endloop
  endfacet
  facet normal 0 0 1
    outer loop
      vertex 6.79837 20.9232 30
      vertex 10.05 17.4071 30
      vertex 11 19.0526 30
    endloop
  endfacet
  facet normal 0 0 1
    outer loop
      vertex 6.79837 20.9232 30
      vertex 6.21124 19.1162 30
      vertex 10.05 17.4071 30
    endloop
  endfacet
  facet normal 0 0 1
    outer loop
      vertex 2.29963 21.8795 30
      vertex 6.21124 19.1162 30
      vertex 6.79837 20.9232 30
    endloop
  endfacet
  facet normal 0 0 1
    outer loop
      vertex 2.29963 21.8795 30
      vertex 2.10102 19.9899 30
      vertex 6.21124 19.1162 30
    endloop
  endfacet
  facet normal 0 0 1
    outer loop
      vertex 2.29963 21.8795 30
      vertex -2.10102 19.9899 30
      vertex 2.10102 19.9899 30
    endloop
  endfacet
  facet normal -0 0 1
    outer loop
      vertex -2.29963 21.8795 30
      vertex -2.10102 19.9899 30
      vertex 2.29963 21.8795 30
    endloop
  endfacet
  facet normal 0 0 1
    outer loop
      vertex -2.29963 21.8795 30
      vertex -6.21124 19.1162 30
      vertex -2.10102 19.9899 30
    endloop
  endfacet
  facet normal -0 0 1
    outer loop
      vertex -6.79837 20.9232 30
      vertex -6.21124 19.1162 30
      vertex -2.29963 21.8795 30
    endloop
  endfacet
  facet normal 0 0 1
    outer loop
      vertex -6.79837 20.9232 30
      vertex -10.05 17.4071 30
      vertex -6.21124 19.1162 30
    endloop
  endfacet
  facet normal 0 -0 1
    outer loop
      vertex -10.05 17.4071 30
      vertex -6.79837 20.9232 30
      vertex -11 19.0526 30
    endloop
  endfacet
  facet normal -0.406721 0.913552 0
    outer loop
      vertex -6.79837 20.9232 0
      vertex -11 19.0526 30
      vertex -6.79837 20.9232 30
    endloop
  endfacet
  facet normal -0.406721 0.913552 0
    outer loop
      vertex -11 19.0526 30
      vertex -6.79837 20.9232 0
      vertex -11 19.0526 0
    endloop
  endfacet
  facet normal 0 0 -1
    outer loop
      vertex 10.05 17.4071 0
      vertex 6.79837 20.9232 0
      vertex 11 19.0526 0
    endloop
  endfacet
  facet normal 0 0 -1
    outer loop
      vertex 6.21124 19.1162 0
      vertex 6.79837 20.9232 0
      vertex 10.05 17.4071 0
    endloop
  endfacet
  facet normal 0 0 -1
    outer loop
      vertex 6.21124 19.1162 0
      vertex 2.29963 21.8795 0
      vertex 6.79837 20.9232 0
    endloop
  endfacet
  facet normal 0 0 -1
    outer loop
      vertex 2.10102 19.9899 0
      vertex 2.29963 21.8795 0
      vertex 6.21124 19.1162 0
    endloop
  endfacet
  facet normal 0 0 -1
    outer loop
      vertex -2.10102 19.9899 0
      vertex 2.29963 21.8795 0
      vertex 2.10102 19.9899 0
    endloop
  endfacet
  facet normal 0 0 -1
    outer loop
      vertex -2.10102 19.9899 0
      vertex -2.29963 21.8795 0
      vertex 2.29963 21.8795 0
    endloop
  endfacet
  facet normal 0 0 -1
    outer loop
      vertex -6.21124 19.1162 0
      vertex -2.29963 21.8795 0
      vertex -2.10102 19.9899 0
    endloop
  endfacet
  facet normal 0 0 -1
    outer loop
      vertex -6.21124 19.1162 0
      vertex -6.79837 20.9232 0
      vertex -2.29963 21.8795 0
    endloop
  endfacet
  facet normal 0 0 -1
    outer loop
      vertex -10.05 17.4071 0
      vertex -6.79837 20.9232 0
      vertex -6.21124 19.1162 0
    endloop
  endfacet
  facet normal 0 0 -1
    outer loop
      vertex -6.79837 20.9232 0
      vertex -10.05 17.4071 0
      vertex -11 19.0526 0
    endloop
  endfacet
  facet normal -0.406731 -0.913548 0
    outer loop
      vertex 6.21124 19.1162 0
      vertex 10.05 17.4071 30
      vertex 6.21124 19.1162 30
    endloop
  endfacet
  facet normal -0.406731 -0.913548 -0
    outer loop
      vertex 10.05 17.4071 30
      vertex 6.21124 19.1162 0
      vertex 10.05 17.4071 0
    endloop
  endfacet
  facet normal -0.207922 -0.978145 0
    outer loop
      vertex 2.10102 19.9899 0
      vertex 6.21124 19.1162 30
      vertex 2.10102 19.9899 30
    endloop
  endfacet
  facet normal -0.207922 -0.978145 -0
    outer loop
      vertex 6.21124 19.1162 30
      vertex 2.10102 19.9899 0
      vertex 6.21124 19.1162 0
    endloop
  endfacet
  facet normal 0 -1 0
    outer loop
      vertex -2.10102 19.9899 0
      vertex 2.10102 19.9899 30
      vertex -2.10102 19.9899 30
    endloop
  endfacet
  facet normal 0 -1 -0
    outer loop
      vertex 2.10102 19.9899 30
      vertex -2.10102 19.9899 0
      vertex 2.10102 19.9899 0
    endloop
  endfacet
  facet normal 0.207922 -0.978145 0
    outer loop
      vertex -6.21124 19.1162 0
      vertex -2.10102 19.9899 30
      vertex -6.21124 19.1162 30
    endloop
  endfacet
  facet normal 0.207922 -0.978145 0
    outer loop
      vertex -2.10102 19.9899 30
      vertex -6.21124 19.1162 0
      vertex -2.10102 19.9899 0
    endloop
  endfacet
  facet normal 0.406731 -0.913548 0
    outer loop
      vertex -10.05 17.4071 0
      vertex -6.21124 19.1162 30
      vertex -10.05 17.4071 30
    endloop
  endfacet
  facet normal 0.406731 -0.913548 0
    outer loop
      vertex -6.21124 19.1162 30
      vertex -10.05 17.4071 0
      vertex -6.21124 19.1162 0
    endloop
  endfacet
  facet normal 0.866032 0.499988 0
    outer loop
      vertex -10.05 17.4071 30
      vertex -11 19.0526 0
      vertex -11 19.0526 30
    endloop
  endfacet
  facet normal 0.866032 0.499988 0
    outer loop
      vertex -11 19.0526 0
      vertex -10.05 17.4071 30
      vertex -10.05 17.4071 0
    endloop
  endfacet
  facet normal -2.16388e-07 -1 0
    outer loop
      vertex -22 4.69003e-07 0
      vertex -20.1 5.78656e-08 30
      vertex -22 4.69003e-07 30
    endloop
  endfacet
  facet normal -2.16388e-07 -1 -0
    outer loop
      vertex -20.1 5.78656e-08 30
      vertex -22 4.69003e-07 0
      vertex -20.1 5.78656e-08 0
    endloop
  endfacet
  facet normal -0.587786 0.809016 0
    outer loop
      vertex -11 19.0526 0
      vertex -14.7209 16.3492 30
      vertex -11 19.0526 30
    endloop
  endfacet
  facet normal -0.587786 0.809016 0
    outer loop
      vertex -14.7209 16.3492 30
      vertex -11 19.0526 0
      vertex -14.7209 16.3492 0
    endloop
  endfacet
  facet normal -0.743144 0.669132 0
    outer loop
      vertex -17.7984 12.9313 0
      vertex -14.7209 16.3492 30
      vertex -14.7209 16.3492 0
    endloop
  endfacet
  facet normal -0.743144 0.669132 0
    outer loop
      vertex -14.7209 16.3492 30
      vertex -17.7984 12.9313 0
      vertex -17.7984 12.9313 30
    endloop
  endfacet
  facet normal -0.866029 0.499994 0
    outer loop
      vertex -20.098 8.94821 0
      vertex -17.7984 12.9313 30
      vertex -17.7984 12.9313 0
    endloop
  endfacet
  facet normal -0.866029 0.499994 0
    outer loop
      vertex -17.7984 12.9313 30
      vertex -20.098 8.94821 0
      vertex -20.098 8.94821 30
    endloop
  endfacet
  facet normal -0.95106 0.309008 0
    outer loop
      vertex -21.5192 4.57406 0
      vertex -20.098 8.94821 30
      vertex -20.098 8.94821 0
    endloop
  endfacet
  facet normal -0.95106 0.309008 0
    outer loop
      vertex -20.098 8.94821 30
      vertex -21.5192 4.57406 0
      vertex -21.5192 4.57406 30
    endloop
  endfacet
  facet normal 0 0 1
    outer loop
      vertex -11 19.0526 30
      vertex -13.4495 14.9372 30
      vertex -10.05 17.4071 30
    endloop
  endfacet
  facet normal -0 0 1
    outer loop
      vertex -14.7209 16.3492 30
      vertex -13.4495 14.9372 30
      vertex -11 19.0526 30
    endloop
  endfacet
  facet normal 0 0 1
    outer loop
      vertex -14.7209 16.3492 30
      vertex -16.2612 11.8145 30
      vertex -13.4495 14.9372 30
    endloop
  endfacet
  facet normal -0 0 1
    outer loop
      vertex -17.7984 12.9313 30
      vertex -16.2612 11.8145 30
      vertex -14.7209 16.3492 30
    endloop
  endfacet
  facet normal 0 0 1
    outer loop
      vertex -17.7984 12.9313 30
      vertex -18.3623 8.17541 30
      vertex -16.2612 11.8145 30
    endloop
  endfacet
  facet normal -0 0 1
    outer loop
      vertex -20.098 8.94821 30
      vertex -18.3623 8.17541 30
      vertex -17.7984 12.9313 30
    endloop
  endfacet
  facet normal 0 0 1
    outer loop
      vertex -18.3623 8.17541 30
      vertex -20.098 8.94821 30
      vertex -19.6608 4.17903 30
    endloop
  endfacet
  facet normal -0 0 1
    outer loop
      vertex -21.5192 4.57406 30
      vertex -19.6608 4.17903 30
      vertex -20.098 8.94821 30
    endloop
  endfacet
  facet normal 0 0 1
    outer loop
      vertex -19.6608 4.17903 30
      vertex -21.5192 4.57406 30
      vertex -20.1 5.78656e-08 30
    endloop
  endfacet
  facet normal 0 0 1
    outer loop
      vertex -20.1 5.78656e-08 30
      vertex -21.5192 4.57406 30
      vertex -22 4.69003e-07 30
    endloop
  endfacet
  facet normal -0.994521 0.104539 0
    outer loop
      vertex -22 4.69003e-07 0
      vertex -21.5192 4.57406 30
      vertex -21.5192 4.57406 0
    endloop
  endfacet
  facet normal -0.994521 0.104539 0
    outer loop
      vertex -21.5192 4.57406 30
      vertex -22 4.69003e-07 0
      vertex -22 4.69003e-07 30
    endloop
  endfacet
  facet normal 0 0 -1
    outer loop
      vertex -13.4495 14.9372 0
      vertex -11 19.0526 0
      vertex -10.05 17.4071 0
    endloop
  endfacet
  facet normal 0 0 -1
    outer loop
      vertex -13.4495 14.9372 0
      vertex -14.7209 16.3492 0
      vertex -11 19.0526 0
    endloop
  endfacet
  facet normal 0 0 -1
    outer loop
      vertex -16.2612 11.8145 0
      vertex -14.7209 16.3492 0
      vertex -13.4495 14.9372 0
    endloop
  endfacet
  facet normal 0 0 -1
    outer loop
      vertex -16.2612 11.8145 0
      vertex -17.7984 12.9313 0
      vertex -14.7209 16.3492 0
    endloop
  endfacet
  facet normal 0 0 -1
    outer loop
      vertex -18.3623 8.17541 0
      vertex -17.7984 12.9313 0
      vertex -16.2612 11.8145 0
    endloop
  endfacet
  facet normal 0 0 -1
    outer loop
      vertex -20.098 8.94821 0
      vertex -18.3623 8.17541 0
      vertex -19.6608 4.17903 0
    endloop
  endfacet
  facet normal 0 0 -1
    outer loop
      vertex -18.3623 8.17541 0
      vertex -20.098 8.94821 0
      vertex -17.7984 12.9313 0
    endloop
  endfacet
  facet normal 0 0 -1
    outer loop
      vertex -21.5192 4.57406 0
      vertex -19.6608 4.17903 0
      vertex -20.1 5.78656e-08 0
    endloop
  endfacet
  facet normal 0 0 -1
    outer loop
      vertex -19.6608 4.17903 0
      vertex -21.5192 4.57406 0
      vertex -20.098 8.94821 0
    endloop
  endfacet
  facet normal 0 -0 -1
    outer loop
      vertex -21.5192 4.57406 0
      vertex -20.1 5.78656e-08 0
      vertex -22 4.69003e-07 0
    endloop
  endfacet
  facet normal 0.587788 -0.809015 0
    outer loop
      vertex -13.4495 14.9372 0
      vertex -10.05 17.4071 30
      vertex -13.4495 14.9372 30
    endloop
  endfacet
  facet normal 0.587788 -0.809015 0
    outer loop
      vertex -10.05 17.4071 30
      vertex -13.4495 14.9372 0
      vertex -10.05 17.4071 0
    endloop
  endfacet
  facet normal 0.743144 -0.669132 0
    outer loop
      vertex -16.2612 11.8145 30
      vertex -13.4495 14.9372 0
      vertex -13.4495 14.9372 30
    endloop
  endfacet
  facet normal 0.743144 -0.669132 0
    outer loop
      vertex -13.4495 14.9372 0
      vertex -16.2612 11.8145 30
      vertex -16.2612 11.8145 0
    endloop
  endfacet
  facet normal 0.866018 -0.500013 0
    outer loop
      vertex -18.3623 8.17541 30
      vertex -16.2612 11.8145 0
      vertex -16.2612 11.8145 30
    endloop
  endfacet
  facet normal 0.866018 -0.500013 0
    outer loop
      vertex -16.2612 11.8145 0
      vertex -18.3623 8.17541 30
      vertex -18.3623 8.17541 0
    endloop
  endfacet
  facet normal 0.951057 -0.309016 0
    outer loop
      vertex -19.6608 4.17903 30
      vertex -18.3623 8.17541 0
      vertex -18.3623 8.17541 30
    endloop
  endfacet
  facet normal 0.951057 -0.309016 0
    outer loop
      vertex -18.3623 8.17541 0
      vertex -19.6608 4.17903 30
      vertex -19.6608 4.17903 0
    endloop
  endfacet
  facet normal 0.994523 -0.104521 0
    outer loop
      vertex -20.1 5.78656e-08 30
      vertex -19.6608 4.17903 0
      vertex -19.6608 4.17903 30
    endloop
  endfacet
  facet normal 0.994523 -0.104521 0
    outer loop
      vertex -19.6608 4.17903 0
      vertex -20.1 5.78656e-08 30
      vertex -20.1 5.78656e-08 0
    endloop
  endfacet
  facet normal 0 1 -0
    outer loop
      vertex -20.1 0 0
      vertex -22 0 30
      vertex -20.1 0 30
    endloop
  endfacet
  facet normal 0 1 0
    outer loop
      vertex -22 0 30
      vertex -20.1 0 0
      vertex -22 0 0
    endloop
  endfacet
  facet normal 0.866032 -0.499988 0
    outer loop
      vertex -11 -19.0526 30
      vertex -10.05 -17.4071 0
      vertex -10.05 -17.4071 30
    endloop
  endfacet
  facet normal 0.866032 -0.499988 0
    outer loop
      vertex -10.05 -17.4071 0
      vertex -11 -19.0526 30
      vertex -11 -19.0526 0
    endloop
  endfacet
  facet normal -0.994521 -0.104539 0
    outer loop
      vertex -21.5192 -4.57406 0
      vertex -22 0 30
      vertex -22 0 0
    endloop
  endfacet
  facet normal -0.994521 -0.104539 0
    outer loop
      vertex -22 0 30
      vertex -21.5192 -4.57406 0
      vertex -21.5192 -4.57406 30
    endloop
  endfacet
  facet normal -0.95106 -0.309008 0
    outer loop
      vertex -20.098 -8.94821 0
      vertex -21.5192 -4.57406 30
      vertex -21.5192 -4.57406 0
    endloop
  endfacet
  facet normal -0.95106 -0.309008 0
    outer loop
      vertex -21.5192 -4.57406 30
      vertex -20.098 -8.94821 0
      vertex -20.098 -8.94821 30
    endloop
  endfacet
  facet normal -0.866029 -0.499994 0
    outer loop
      vertex -17.7984 -12.9313 0
      vertex -20.098 -8.94821 30
      vertex -20.098 -8.94821 0
    endloop
  endfacet
  facet normal -0.866029 -0.499994 0
    outer loop
      vertex -20.098 -8.94821 30
      vertex -17.7984 -12.9313 0
      vertex -17.7984 -12.9313 30
    endloop
  endfacet
  facet normal -0.743144 -0.669132 0
    outer loop
      vertex -14.7209 -16.3492 0
      vertex -17.7984 -12.9313 30
      vertex -17.7984 -12.9313 0
    endloop
  endfacet
  facet normal -0.743144 -0.669132 0
    outer loop
      vertex -17.7984 -12.9313 30
      vertex -14.7209 -16.3492 0
      vertex -14.7209 -16.3492 30
    endloop
  endfacet
  facet normal 0 0 1
    outer loop
      vertex -13.4495 -14.9372 30
      vertex -11 -19.0526 30
      vertex -10.05 -17.4071 30
    endloop
  endfacet
  facet normal 0 0 1
    outer loop
      vertex -13.4495 -14.9372 30
      vertex -14.7209 -16.3492 30
      vertex -11 -19.0526 30
    endloop
  endfacet
  facet normal 0 0 1
    outer loop
      vertex -16.2612 -11.8145 30
      vertex -14.7209 -16.3492 30
      vertex -13.4495 -14.9372 30
    endloop
  endfacet
  facet normal 0 0 1
    outer loop
      vertex -16.2612 -11.8145 30
      vertex -17.7984 -12.9313 30
      vertex -14.7209 -16.3492 30
    endloop
  endfacet
  facet normal 0 0 1
    outer loop
      vertex -18.3623 -8.17541 30
      vertex -17.7984 -12.9313 30
      vertex -16.2612 -11.8145 30
    endloop
  endfacet
  facet normal 0 0 1
    outer loop
      vertex -20.098 -8.94821 30
      vertex -18.3623 -8.17541 30
      vertex -19.6608 -4.17902 30
    endloop
  endfacet
  facet normal 0 0 1
    outer loop
      vertex -18.3623 -8.17541 30
      vertex -20.098 -8.94821 30
      vertex -17.7984 -12.9313 30
    endloop
  endfacet
  facet normal 0 0 1
    outer loop
      vertex -21.5192 -4.57406 30
      vertex -19.6608 -4.17902 30
      vertex -20.1 0 30
    endloop
  endfacet
  facet normal 0 0 1
    outer loop
      vertex -19.6608 -4.17902 30
      vertex -21.5192 -4.57406 30
      vertex -20.098 -8.94821 30
    endloop
  endfacet
  facet normal 0 -0 1
    outer loop
      vertex -21.5192 -4.57406 30
      vertex -20.1 0 30
      vertex -22 0 30
    endloop
  endfacet
  facet normal -0.587786 -0.809016 0
    outer loop
      vertex -14.7209 -16.3492 0
      vertex -11 -19.0526 30
      vertex -14.7209 -16.3492 30
    endloop
  endfacet
  facet normal -0.587786 -0.809016 -0
    outer loop
      vertex -11 -19.0526 30
      vertex -14.7209 -16.3492 0
      vertex -11 -19.0526 0
    endloop
  endfacet
  facet normal 0 0 -1
    outer loop
      vertex -11 -19.0526 0
      vertex -13.4495 -14.9372 0
      vertex -10.05 -17.4071 0
    endloop
  endfacet
  facet normal 0 0 -1
    outer loop
      vertex -14.7209 -16.3492 0
      vertex -13.4495 -14.9372 0
      vertex -11 -19.0526 0
    endloop
  endfacet
  facet normal 0 0 -1
    outer loop
      vertex -14.7209 -16.3492 0
      vertex -16.2612 -11.8145 0
      vertex -13.4495 -14.9372 0
    endloop
  endfacet
  facet normal 0 0 -1
    outer loop
      vertex -17.7984 -12.9313 0
      vertex -16.2612 -11.8145 0
      vertex -14.7209 -16.3492 0
    endloop
  endfacet
  facet normal 0 0 -1
    outer loop
      vertex -17.7984 -12.9313 0
      vertex -18.3623 -8.17541 0
      vertex -16.2612 -11.8145 0
    endloop
  endfacet
  facet normal 0 0 -1
    outer loop
      vertex -20.098 -8.94821 0
      vertex -18.3623 -8.17541 0
      vertex -17.7984 -12.9313 0
    endloop
  endfacet
  facet normal -0 0 -1
    outer loop
      vertex -18.3623 -8.17541 0
      vertex -20.098 -8.94821 0
      vertex -19.6608 -4.17902 0
    endloop
  endfacet
  facet normal 0 0 -1
    outer loop
      vertex -21.5192 -4.57406 0
      vertex -19.6608 -4.17902 0
      vertex -20.098 -8.94821 0
    endloop
  endfacet
  facet normal -0 0 -1
    outer loop
      vertex -19.6608 -4.17902 0
      vertex -21.5192 -4.57406 0
      vertex -20.1 0 0
    endloop
  endfacet
  facet normal -0 0 -1
    outer loop
      vertex -20.1 0 0
      vertex -21.5192 -4.57406 0
      vertex -22 0 0
    endloop
  endfacet
  facet normal 0.994523 0.104521 0
    outer loop
      vertex -19.6608 -4.17902 30
      vertex -20.1 0 0
      vertex -20.1 0 30
    endloop
  endfacet
  facet normal 0.994523 0.104521 0
    outer loop
      vertex -20.1 0 0
      vertex -19.6608 -4.17902 30
      vertex -19.6608 -4.17902 0
    endloop
  endfacet
  facet normal 0.951057 0.309016 0
    outer loop
      vertex -18.3623 -8.17541 30
      vertex -19.6608 -4.17902 0
      vertex -19.6608 -4.17902 30
    endloop
  endfacet
  facet normal 0.951057 0.309016 0
    outer loop
      vertex -19.6608 -4.17902 0
      vertex -18.3623 -8.17541 30
      vertex -18.3623 -8.17541 0
    endloop
  endfacet
  facet normal 0.866018 0.500013 0
    outer loop
      vertex -16.2612 -11.8145 30
      vertex -18.3623 -8.17541 0
      vertex -18.3623 -8.17541 30
    endloop
  endfacet
  facet normal 0.866018 0.500013 0
    outer loop
      vertex -18.3623 -8.17541 0
      vertex -16.2612 -11.8145 30
      vertex -16.2612 -11.8145 0
    endloop
  endfacet
  facet normal 0.743144 0.669132 0
    outer loop
      vertex -13.4495 -14.9372 30
      vertex -16.2612 -11.8145 0
      vertex -16.2612 -11.8145 30
    endloop
  endfacet
  facet normal 0.743144 0.669132 0
    outer loop
      vertex -16.2612 -11.8145 0
      vertex -13.4495 -14.9372 30
      vertex -13.4495 -14.9372 0
    endloop
  endfacet
  facet normal 0.587788 0.809015 -0
    outer loop
      vertex -10.05 -17.4071 0
      vertex -13.4495 -14.9372 30
      vertex -10.05 -17.4071 30
    endloop
  endfacet
  facet normal 0.587788 0.809015 0
    outer loop
      vertex -13.4495 -14.9372 30
      vertex -10.05 -17.4071 0
      vertex -13.4495 -14.9372 0
    endloop
  endfacet
  facet normal -0.866032 0.499988 0
    outer loop
      vertex -11 -19.0526 0
      vertex -10.05 -17.4071 30
      vertex -10.05 -17.4071 0
    endloop
  endfacet
  facet normal -0.866032 0.499988 0
    outer loop
      vertex -10.05 -17.4071 30
      vertex -11 -19.0526 0
      vertex -11 -19.0526 30
    endloop
  endfacet
  facet normal 0.866032 0.499988 0
    outer loop
      vertex 11 -19.0526 30
      vertex 10.05 -17.4071 0
      vertex 10.05 -17.4071 30
    endloop
  endfacet
  facet normal 0.866032 0.499988 0
    outer loop
      vertex 10.05 -17.4071 0
      vertex 11 -19.0526 30
      vertex 11 -19.0526 0
    endloop
  endfacet
  facet normal -0.406721 -0.913552 0
    outer loop
      vertex -11 -19.0526 0
      vertex -6.79837 -20.9232 30
      vertex -11 -19.0526 30
    endloop
  endfacet
  facet normal -0.406721 -0.913552 -0
    outer loop
      vertex -6.79837 -20.9232 30
      vertex -11 -19.0526 0
      vertex -6.79837 -20.9232 0
    endloop
  endfacet
  facet normal -0.207925 -0.978145 0
    outer loop
      vertex -6.79837 -20.9232 0
      vertex -2.29963 -21.8795 30
      vertex -6.79837 -20.9232 30
    endloop
  endfacet
  facet normal -0.207925 -0.978145 -0
    outer loop
      vertex -2.29963 -21.8795 30
      vertex -6.79837 -20.9232 0
      vertex -2.29963 -21.8795 0
    endloop
  endfacet
  facet normal 0 -1 0
    outer loop
      vertex -2.29963 -21.8795 0
      vertex 2.29963 -21.8795 30
      vertex -2.29963 -21.8795 30
    endloop
  endfacet
  facet normal 0 -1 -0
    outer loop
      vertex 2.29963 -21.8795 30
      vertex -2.29963 -21.8795 0
      vertex 2.29963 -21.8795 0
    endloop
  endfacet
  facet normal 0.207925 -0.978145 0
    outer loop
      vertex 2.29963 -21.8795 0
      vertex 6.79837 -20.9232 30
      vertex 2.29963 -21.8795 30
    endloop
  endfacet
  facet normal 0.207925 -0.978145 0
    outer loop
      vertex 6.79837 -20.9232 30
      vertex 2.29963 -21.8795 0
      vertex 6.79837 -20.9232 0
    endloop
  endfacet
  facet normal 0 0 1
    outer loop
      vertex 10.05 -17.4071 30
      vertex 6.79837 -20.9232 30
      vertex 11 -19.0526 30
    endloop
  endfacet
  facet normal -0 0 1
    outer loop
      vertex 6.21124 -19.1162 30
      vertex 6.79837 -20.9232 30
      vertex 10.05 -17.4071 30
    endloop
  endfacet
  facet normal 0 0 1
    outer loop
      vertex 6.21124 -19.1162 30
      vertex 2.29963 -21.8795 30
      vertex 6.79837 -20.9232 30
    endloop
  endfacet
  facet normal -0 0 1
    outer loop
      vertex 2.10102 -19.9899 30
      vertex 2.29963 -21.8795 30
      vertex 6.21124 -19.1162 30
    endloop
  endfacet
  facet normal -0 0 1
    outer loop
      vertex -2.10102 -19.9899 30
      vertex 2.29963 -21.8795 30
      vertex 2.10102 -19.9899 30
    endloop
  endfacet
  facet normal 0 0 1
    outer loop
      vertex -2.10102 -19.9899 30
      vertex -2.29963 -21.8795 30
      vertex 2.29963 -21.8795 30
    endloop
  endfacet
  facet normal 0 0 1
    outer loop
      vertex -6.21124 -19.1162 30
      vertex -2.29963 -21.8795 30
      vertex -2.10102 -19.9899 30
    endloop
  endfacet
  facet normal 0 0 1
    outer loop
      vertex -6.21124 -19.1162 30
      vertex -6.79837 -20.9232 30
      vertex -2.29963 -21.8795 30
    endloop
  endfacet
  facet normal 0 0 1
    outer loop
      vertex -10.05 -17.4071 30
      vertex -6.79837 -20.9232 30
      vertex -6.21124 -19.1162 30
    endloop
  endfacet
  facet normal 0 0 1
    outer loop
      vertex -6.79837 -20.9232 30
      vertex -10.05 -17.4071 30
      vertex -11 -19.0526 30
    endloop
  endfacet
  facet normal 0.406721 -0.913552 0
    outer loop
      vertex 6.79837 -20.9232 0
      vertex 11 -19.0526 30
      vertex 6.79837 -20.9232 30
    endloop
  endfacet
  facet normal 0.406721 -0.913552 0
    outer loop
      vertex 11 -19.0526 30
      vertex 6.79837 -20.9232 0
      vertex 11 -19.0526 0
    endloop
  endfacet
  facet normal 0 0 -1
    outer loop
      vertex 6.79837 -20.9232 0
      vertex 10.05 -17.4071 0
      vertex 11 -19.0526 0
    endloop
  endfacet
  facet normal 0 0 -1
    outer loop
      vertex 6.79837 -20.9232 0
      vertex 6.21124 -19.1162 0
      vertex 10.05 -17.4071 0
    endloop
  endfacet
  facet normal 0 0 -1
    outer loop
      vertex 2.29963 -21.8795 0
      vertex 6.21124 -19.1162 0
      vertex 6.79837 -20.9232 0
    endloop
  endfacet
  facet normal 0 0 -1
    outer loop
      vertex 2.29963 -21.8795 0
      vertex 2.10102 -19.9899 0
      vertex 6.21124 -19.1162 0
    endloop
  endfacet
  facet normal 0 0 -1
    outer loop
      vertex 2.29963 -21.8795 0
      vertex -2.10102 -19.9899 0
      vertex 2.10102 -19.9899 0
    endloop
  endfacet
  facet normal 0 0 -1
    outer loop
      vertex -2.29963 -21.8795 0
      vertex -2.10102 -19.9899 0
      vertex 2.29963 -21.8795 0
    endloop
  endfacet
  facet normal 0 0 -1
    outer loop
      vertex -2.29963 -21.8795 0
      vertex -6.21124 -19.1162 0
      vertex -2.10102 -19.9899 0
    endloop
  endfacet
  facet normal 0 0 -1
    outer loop
      vertex -6.79837 -20.9232 0
      vertex -6.21124 -19.1162 0
      vertex -2.29963 -21.8795 0
    endloop
  endfacet
  facet normal 0 0 -1
    outer loop
      vertex -6.79837 -20.9232 0
      vertex -10.05 -17.4071 0
      vertex -6.21124 -19.1162 0
    endloop
  endfacet
  facet normal 0 -0 -1
    outer loop
      vertex -10.05 -17.4071 0
      vertex -6.79837 -20.9232 0
      vertex -11 -19.0526 0
    endloop
  endfacet
  facet normal 0.406731 0.913548 -0
    outer loop
      vertex -6.21124 -19.1162 0
      vertex -10.05 -17.4071 30
      vertex -6.21124 -19.1162 30
    endloop
  endfacet
  facet normal 0.406731 0.913548 0
    outer loop
      vertex -10.05 -17.4071 30
      vertex -6.21124 -19.1162 0
      vertex -10.05 -17.4071 0
    endloop
  endfacet
  facet normal 0.207922 0.978145 -0
    outer loop
      vertex -2.10102 -19.9899 0
      vertex -6.21124 -19.1162 30
      vertex -2.10102 -19.9899 30
    endloop
  endfacet
  facet normal 0.207922 0.978145 0
    outer loop
      vertex -6.21124 -19.1162 30
      vertex -2.10102 -19.9899 0
      vertex -6.21124 -19.1162 0
    endloop
  endfacet
  facet normal 0 1 -0
    outer loop
      vertex 2.10102 -19.9899 0
      vertex -2.10102 -19.9899 30
      vertex 2.10102 -19.9899 30
    endloop
  endfacet
  facet normal 0 1 0
    outer loop
      vertex -2.10102 -19.9899 30
      vertex 2.10102 -19.9899 0
      vertex -2.10102 -19.9899 0
    endloop
  endfacet
  facet normal -0.207922 0.978145 0
    outer loop
      vertex 6.21124 -19.1162 0
      vertex 2.10102 -19.9899 30
      vertex 6.21124 -19.1162 30
    endloop
  endfacet
  facet normal -0.207922 0.978145 0
    outer loop
      vertex 2.10102 -19.9899 30
      vertex 6.21124 -19.1162 0
      vertex 2.10102 -19.9899 0
    endloop
  endfacet
  facet normal -0.406731 0.913548 0
    outer loop
      vertex 10.05 -17.4071 0
      vertex 6.21124 -19.1162 30
      vertex 10.05 -17.4071 30
    endloop
  endfacet
  facet normal -0.406731 0.913548 0
    outer loop
      vertex 6.21124 -19.1162 30
      vertex 10.05 -17.4071 0
      vertex 6.21124 -19.1162 0
    endloop
  endfacet
  facet normal -0.866032 -0.499988 0
    outer loop
      vertex 11 -19.0526 0
      vertex 10.05 -17.4071 30
      vertex 10.05 -17.4071 0
    endloop
  endfacet
  facet normal -0.866032 -0.499988 0
    outer loop
      vertex 10.05 -17.4071 30
      vertex 11 -19.0526 0
      vertex 11 -19.0526 30
    endloop
  endfacet
  facet normal 2.16388e-07 1 -0
    outer loop
      vertex 22 -4.69003e-07 0
      vertex 20.1 -5.78656e-08 30
      vertex 22 -4.69003e-07 30
    endloop
  endfacet
  facet normal 2.16388e-07 1 0
    outer loop
      vertex 20.1 -5.78656e-08 30
      vertex 22 -4.69003e-07 0
      vertex 20.1 -5.78656e-08 0
    endloop
  endfacet
  facet normal 0.587786 -0.809016 0
    outer loop
      vertex 11 -19.0526 0
      vertex 14.7209 -16.3492 30
      vertex 11 -19.0526 30
    endloop
  endfacet
  facet normal 0.587786 -0.809016 0
    outer loop
      vertex 14.7209 -16.3492 30
      vertex 11 -19.0526 0
      vertex 14.7209 -16.3492 0
    endloop
  endfacet
  facet normal 0.743144 -0.669132 0
    outer loop
      vertex 14.7209 -16.3492 30
      vertex 17.7984 -12.9313 0
      vertex 17.7984 -12.9313 30
    endloop
  endfacet
  facet normal 0.743144 -0.669132 0
    outer loop
      vertex 17.7984 -12.9313 0
      vertex 14.7209 -16.3492 30
      vertex 14.7209 -16.3492 0
    endloop
  endfacet
  facet normal 0.866029 -0.499994 0
    outer loop
      vertex 17.7984 -12.9313 30
      vertex 20.098 -8.94821 0
      vertex 20.098 -8.94821 30
    endloop
  endfacet
  facet normal 0.866029 -0.499994 0
    outer loop
      vertex 20.098 -8.94821 0
      vertex 17.7984 -12.9313 30
      vertex 17.7984 -12.9313 0
    endloop
  endfacet
  facet normal 0.95106 -0.309008 0
    outer loop
      vertex 20.098 -8.94821 30
      vertex 21.5192 -4.57406 0
      vertex 21.5192 -4.57406 30
    endloop
  endfacet
  facet normal 0.95106 -0.309008 0
    outer loop
      vertex 21.5192 -4.57406 0
      vertex 20.098 -8.94821 30
      vertex 20.098 -8.94821 0
    endloop
  endfacet
  facet normal 0 0 1
    outer loop
      vertex 20.1 -5.78656e-08 30
      vertex 21.5192 -4.57406 30
      vertex 22 -4.69003e-07 30
    endloop
  endfacet
  facet normal -0 0 1
    outer loop
      vertex 19.6608 -4.17903 30
      vertex 21.5192 -4.57406 30
      vertex 20.1 -5.78656e-08 30
    endloop
  endfacet
  facet normal 0 0 1
    outer loop
      vertex 21.5192 -4.57406 30
      vertex 19.6608 -4.17903 30
      vertex 20.098 -8.94821 30
    endloop
  endfacet
  facet normal -0 0 1
    outer loop
      vertex 18.3623 -8.17541 30
      vertex 20.098 -8.94821 30
      vertex 19.6608 -4.17903 30
    endloop
  endfacet
  facet normal 0 0 1
    outer loop
      vertex 18.3623 -8.17541 30
      vertex 17.7984 -12.9313 30
      vertex 20.098 -8.94821 30
    endloop
  endfacet
  facet normal -0 0 1
    outer loop
      vertex 16.2612 -11.8145 30
      vertex 17.7984 -12.9313 30
      vertex 18.3623 -8.17541 30
    endloop
  endfacet
  facet normal 0 0 1
    outer loop
      vertex 16.2612 -11.8145 30
      vertex 14.7209 -16.3492 30
      vertex 17.7984 -12.9313 30
    endloop
  endfacet
  facet normal -0 0 1
    outer loop
      vertex 13.4495 -14.9372 30
      vertex 14.7209 -16.3492 30
      vertex 16.2612 -11.8145 30
    endloop
  endfacet
  facet normal 0 0 1
    outer loop
      vertex 13.4495 -14.9372 30
      vertex 11 -19.0526 30
      vertex 14.7209 -16.3492 30
    endloop
  endfacet
  facet normal 0 -0 1
    outer loop
      vertex 11 -19.0526 30
      vertex 13.4495 -14.9372 30
      vertex 10.05 -17.4071 30
    endloop
  endfacet
  facet normal 0.994521 -0.104539 0
    outer loop
      vertex 21.5192 -4.57406 30
      vertex 22 -4.69003e-07 0
      vertex 22 -4.69003e-07 30
    endloop
  endfacet
  facet normal 0.994521 -0.104539 0
    outer loop
      vertex 22 -4.69003e-07 0
      vertex 21.5192 -4.57406 30
      vertex 21.5192 -4.57406 0
    endloop
  endfacet
  facet normal 0 0 -1
    outer loop
      vertex 21.5192 -4.57406 0
      vertex 20.1 -5.78656e-08 0
      vertex 22 -4.69003e-07 0
    endloop
  endfacet
  facet normal 0 0 -1
    outer loop
      vertex 19.6608 -4.17903 0
      vertex 21.5192 -4.57406 0
      vertex 20.098 -8.94821 0
    endloop
  endfacet
  facet normal 0 0 -1
    outer loop
      vertex 21.5192 -4.57406 0
      vertex 19.6608 -4.17903 0
      vertex 20.1 -5.78656e-08 0
    endloop
  endfacet
  facet normal 0 0 -1
    outer loop
      vertex 20.098 -8.94821 0
      vertex 18.3623 -8.17541 0
      vertex 19.6608 -4.17903 0
    endloop
  endfacet
  facet normal 0 0 -1
    outer loop
      vertex 17.7984 -12.9313 0
      vertex 18.3623 -8.17541 0
      vertex 20.098 -8.94821 0
    endloop
  endfacet
  facet normal 0 0 -1
    outer loop
      vertex 17.7984 -12.9313 0
      vertex 16.2612 -11.8145 0
      vertex 18.3623 -8.17541 0
    endloop
  endfacet
  facet normal 0 0 -1
    outer loop
      vertex 14.7209 -16.3492 0
      vertex 16.2612 -11.8145 0
      vertex 17.7984 -12.9313 0
    endloop
  endfacet
  facet normal 0 0 -1
    outer loop
      vertex 14.7209 -16.3492 0
      vertex 13.4495 -14.9372 0
      vertex 16.2612 -11.8145 0
    endloop
  endfacet
  facet normal 0 0 -1
    outer loop
      vertex 11 -19.0526 0
      vertex 13.4495 -14.9372 0
      vertex 14.7209 -16.3492 0
    endloop
  endfacet
  facet normal 0 0 -1
    outer loop
      vertex 13.4495 -14.9372 0
      vertex 11 -19.0526 0
      vertex 10.05 -17.4071 0
    endloop
  endfacet
  facet normal -0.587788 0.809015 0
    outer loop
      vertex 13.4495 -14.9372 0
      vertex 10.05 -17.4071 30
      vertex 13.4495 -14.9372 30
    endloop
  endfacet
  facet normal -0.587788 0.809015 0
    outer loop
      vertex 10.05 -17.4071 30
      vertex 13.4495 -14.9372 0
      vertex 10.05 -17.4071 0
    endloop
  endfacet
  facet normal -0.743144 0.669132 0
    outer loop
      vertex 13.4495 -14.9372 0
      vertex 16.2612 -11.8145 30
      vertex 16.2612 -11.8145 0
    endloop
  endfacet
  facet normal -0.743144 0.669132 0
    outer loop
      vertex 16.2612 -11.8145 30
      vertex 13.4495 -14.9372 0
      vertex 13.4495 -14.9372 30
    endloop
  endfacet
  facet normal -0.866018 0.500013 0
    outer loop
      vertex 16.2612 -11.8145 0
      vertex 18.3623 -8.17541 30
      vertex 18.3623 -8.17541 0
    endloop
  endfacet
  facet normal -0.866018 0.500013 0
    outer loop
      vertex 18.3623 -8.17541 30
      vertex 16.2612 -11.8145 0
      vertex 16.2612 -11.8145 30
    endloop
  endfacet
  facet normal -0.951057 0.309016 0
    outer loop
      vertex 18.3623 -8.17541 0
      vertex 19.6608 -4.17903 30
      vertex 19.6608 -4.17903 0
    endloop
  endfacet
  facet normal -0.951057 0.309016 0
    outer loop
      vertex 19.6608 -4.17903 30
      vertex 18.3623 -8.17541 0
      vertex 18.3623 -8.17541 30
    endloop
  endfacet
  facet normal -0.994523 0.104521 0
    outer loop
      vertex 19.6608 -4.17903 0
      vertex 20.1 -5.78656e-08 30
      vertex 20.1 -5.78656e-08 0
    endloop
  endfacet
  facet normal -0.994523 0.104521 0
    outer loop
      vertex 20.1 -5.78656e-08 30
      vertex 19.6608 -4.17903 0
      vertex 19.6608 -4.17903 30
    endloop
  endfacet
endsolid OpenSCAD_Model
