solid OpenSCAD_Model
  facet normal -1 0 0
    outer loop
      vertex 0 0 2
      vertex 0 30 38
      vertex 0 30 2
    endloop
  endfacet
  facet normal -1 -0 0
    outer loop
      vertex 0 30 38
      vertex 0 0 2
      vertex 0 0 38
    endloop
  endfacet
  facet normal 0 0 1
    outer loop
      vertex 17.5 35 40
      vertex -5 35 40
      vertex 10 5 40
    endloop
  endfacet
  facet normal 0 0 1
    outer loop
      vertex 65 35 40
      vertex 50 5 40
      vertex 65 -5 40
    endloop
  endfacet
  facet normal 0 -0 1
    outer loop
      vertex 50 5 40
      vertex 65 35 40
      vertex 42.5 35 40
    endloop
  endfacet
  facet normal -0 0 1
    outer loop
      vertex 10 5 40
      vertex 65 -5 40
      vertex 50 5 40
    endloop
  endfacet
  facet normal 0 0 1
    outer loop
      vertex 10 5 40
      vertex -5 -5 40
      vertex 65 -5 40
    endloop
  endfacet
  facet normal 0 0 1
    outer loop
      vertex -5 -5 40
      vertex 10 5 40
      vertex -5 35 40
    endloop
  endfacet
  facet normal 1 -0 0
    outer loop
      vertex 60 0 38
      vertex 60 30 2
      vertex 60 30 38
    endloop
  endfacet
  facet normal 1 0 0
    outer loop
      vertex 60 30 2
      vertex 60 0 38
      vertex 60 0 2
    endloop
  endfacet
  facet normal 0 0 -1
    outer loop
      vertex 65 -5 0
      vertex 50 5 0
      vertex 65 35 0
    endloop
  endfacet
  facet normal 0 0 -1
    outer loop
      vertex 65 -5 0
      vertex 10 5 0
      vertex 50 5 0
    endloop
  endfacet
  facet normal 0 -0 -1
    outer loop
      vertex 10 5 0
      vertex 65 -5 0
      vertex -5 -5 0
    endloop
  endfacet
  facet normal -0 0 -1
    outer loop
      vertex 65 35 0
      vertex 50 5 0
      vertex 42.5 35 0
    endloop
  endfacet
  facet normal 0 0 -1
    outer loop
      vertex -5 35 0
      vertex 10 5 0
      vertex -5 -5 0
    endloop
  endfacet
  facet normal 0 0 -1
    outer loop
      vertex 10 5 0
      vertex -5 35 0
      vertex 17.5 35 0
    endloop
  endfacet
  facet normal 0 -1 0
    outer loop
      vertex 0 0 2
      vertex 60 0 38
      vertex 0 0 38
    endloop
  endfacet
  facet normal 0 -1 -0
    outer loop
      vertex 60 0 38
      vertex 0 0 2
      vertex 60 0 2
    endloop
  endfacet
  facet normal 0 1 -0
    outer loop
      vertex 16.25 30 2
      vertex 0 30 38
      vertex 16.25 30 38
    endloop
  endfacet
  facet normal 0 1 0
    outer loop
      vertex 0 30 38
      vertex 16.25 30 2
      vertex 0 30 2
    endloop
  endfacet
  facet normal 0 1 -0
    outer loop
      vertex 60 30 2
      vertex 43.75 30 38
      vertex 60 30 38
    endloop
  endfacet
  facet normal 0 1 0
    outer loop
      vertex 43.75 30 38
      vertex 60 30 2
      vertex 43.75 30 2
    endloop
  endfacet
  facet normal -1 0 0
    outer loop
      vertex -5 -5 0
      vertex -5 35 2
      vertex -5 35 0
    endloop
  endfacet
  facet normal -1 -0 0
    outer loop
      vertex -5 35 2
      vertex -5 -5 0
      vertex -5 -5 2
    endloop
  endfacet
  facet normal 0 0 1
    outer loop
      vertex 17.5 35 2
      vertex 0 30 2
      vertex 16.25 30 2
    endloop
  endfacet
  facet normal 0 0 1
    outer loop
      vertex 0 30 2
      vertex -5 35 2
      vertex 0 0 2
    endloop
  endfacet
  facet normal -0 0 1
    outer loop
      vertex -5 35 2
      vertex 0 30 2
      vertex 17.5 35 2
    endloop
  endfacet
  facet normal 0 0 1
    outer loop
      vertex 65 35 2
      vertex 60 30 2
      vertex 65 -5 2
    endloop
  endfacet
  facet normal -0 0 1
    outer loop
      vertex 42.5 35 2
      vertex 60 30 2
      vertex 65 35 2
    endloop
  endfacet
  facet normal 0 0 1
    outer loop
      vertex 60 30 2
      vertex 42.5 35 2
      vertex 43.75 30 2
    endloop
  endfacet
  facet normal -0 0 1
    outer loop
      vertex 60 0 2
      vertex 65 -5 2
      vertex 60 30 2
    endloop
  endfacet
  facet normal -0 0 1
    outer loop
      vertex 0 0 2
      vertex 65 -5 2
      vertex 60 0 2
    endloop
  endfacet
  facet normal 0 0 1
    outer loop
      vertex 0 0 2
      vertex -5 -5 2
      vertex 65 -5 2
    endloop
  endfacet
  facet normal 0 0 1
    outer loop
      vertex -5 -5 2
      vertex 0 0 2
      vertex -5 35 2
    endloop
  endfacet
  facet normal 1 -0 0
    outer loop
      vertex 65 -5 2
      vertex 65 35 0
      vertex 65 35 2
    endloop
  endfacet
  facet normal 1 0 0
    outer loop
      vertex 65 35 0
      vertex 65 -5 2
      vertex 65 -5 0
    endloop
  endfacet
  facet normal 0 -1 0
    outer loop
      vertex -5 -5 0
      vertex 65 -5 2
      vertex -5 -5 2
    endloop
  endfacet
  facet normal 0 -1 -0
    outer loop
      vertex 65 -5 2
      vertex -5 -5 0
      vertex 65 -5 0
    endloop
  endfacet
  facet normal 0 1 -0
    outer loop
      vertex 65 35 0
      vertex 42.5 35 2
      vertex 65 35 2
    endloop
  endfacet
  facet normal 0 1 0
    outer loop
      vertex 42.5 35 2
      vertex 65 35 0
      vertex 42.5 35 0
    endloop
  endfacet
  facet normal 0 1 -0
    outer loop
      vertex 17.5 35 0
      vertex -5 35 2
      vertex 17.5 35 2
    endloop
  endfacet
  facet normal 0 1 0
    outer loop
      vertex -5 35 2
      vertex 17.5 35 0
      vertex -5 35 0
    endloop
  endfacet
  facet normal -1 0 0
    outer loop
      vertex -5 -5 38
      vertex -5 35 40
      vertex -5 35 38
    endloop
  endfacet
  facet normal -1 -0 0
    outer loop
      vertex -5 35 40
      vertex -5 -5 38
      vertex -5 -5 40
    endloop
  endfacet
  facet normal 1 -0 0
    outer loop
      vertex 65 -5 40
      vertex 65 35 38
      vertex 65 35 40
    endloop
  endfacet
  facet normal 1 0 0
    outer loop
      vertex 65 35 38
      vertex 65 -5 40
      vertex 65 -5 38
    endloop
  endfacet
  facet normal 0 0 -1
    outer loop
      vertex 65 -5 38
      vertex 60 0 38
      vertex 65 35 38
    endloop
  endfacet
  facet normal 0 0 -1
    outer loop
      vertex 65 -5 38
      vertex 0 0 38
      vertex 60 0 38
    endloop
  endfacet
  facet normal -0 0 -1
    outer loop
      vertex 0 0 38
      vertex -5 -5 38
      vertex 0 30 38
    endloop
  endfacet
  facet normal 0 0 -1
    outer loop
      vertex -5 -5 38
      vertex 0 0 38
      vertex 65 -5 38
    endloop
  endfacet
  facet normal 0 0 -1
    outer loop
      vertex 60 30 38
      vertex 65 35 38
      vertex 60 0 38
    endloop
  endfacet
  facet normal 0 0 -1
    outer loop
      vertex 42.5 35 38
      vertex 60 30 38
      vertex 43.75 30 38
    endloop
  endfacet
  facet normal 0 0 -1
    outer loop
      vertex 60 30 38
      vertex 42.5 35 38
      vertex 65 35 38
    endloop
  endfacet
  facet normal 0 0 -1
    outer loop
      vertex 0 30 38
      vertex 17.5 35 38
      vertex 16.25 30 38
    endloop
  endfacet
  facet normal 0 0 -1
    outer loop
      vertex 0 30 38
      vertex -5 35 38
      vertex 17.5 35 38
    endloop
  endfacet
  facet normal 0 0 -1
    outer loop
      vertex -5 35 38
      vertex 0 30 38
      vertex -5 -5 38
    endloop
  endfacet
  facet normal 0 -1 0
    outer loop
      vertex -5 -5 38
      vertex 65 -5 40
      vertex -5 -5 40
    endloop
  endfacet
  facet normal 0 -1 -0
    outer loop
      vertex 65 -5 40
      vertex -5 -5 38
      vertex 65 -5 38
    endloop
  endfacet
  facet normal 0 1 -0
    outer loop
      vertex 65 35 38
      vertex 42.5 35 40
      vertex 65 35 40
    endloop
  endfacet
  facet normal 0 1 0
    outer loop
      vertex 42.5 35 40
      vertex 65 35 38
      vertex 42.5 35 38
    endloop
  endfacet
  facet normal 0 1 -0
    outer loop
      vertex 17.5 35 38
      vertex -5 35 40
      vertex 17.5 35 40
    endloop
  endfacet
  facet normal 0 1 0
    outer loop
      vertex -5 35 40
      vertex 17.5 35 38
      vertex -5 35 38
    endloop
  endfacet
  facet normal -0.970143 -0.242536 0
    outer loop
      vertex 42.5 35 0
      vertex 43.75 30 2
      vertex 42.5 35 2
    endloop
  endfacet
  facet normal -0.970143 -0.242536 0
    outer loop
      vertex 43.75 30 2
      vertex 50 5 0
      vertex 43.75 30 38
    endloop
  endfacet
  facet normal -0.970143 -0.242536 0
    outer loop
      vertex 50 5 0
      vertex 43.75 30 2
      vertex 42.5 35 0
    endloop
  endfacet
  facet normal -0.970143 -0.242536 0
    outer loop
      vertex 43.75 30 38
      vertex 42.5 35 40
      vertex 42.5 35 38
    endloop
  endfacet
  facet normal -0.970143 -0.242536 0
    outer loop
      vertex 43.75 30 38
      vertex 50 5 40
      vertex 42.5 35 40
    endloop
  endfacet
  facet normal -0.970143 -0.242536 -0
    outer loop
      vertex 50 5 40
      vertex 43.75 30 38
      vertex 50 5 0
    endloop
  endfacet
  facet normal 0.970143 -0.242536 0
    outer loop
      vertex 17.5 35 40
      vertex 16.25 30 38
      vertex 17.5 35 38
    endloop
  endfacet
  facet normal 0.970143 -0.242536 0
    outer loop
      vertex 16.25 30 38
      vertex 10 5 40
      vertex 16.25 30 2
    endloop
  endfacet
  facet normal 0.970143 -0.242536 0
    outer loop
      vertex 10 5 40
      vertex 16.25 30 38
      vertex 17.5 35 40
    endloop
  endfacet
  facet normal 0.970143 -0.242536 0
    outer loop
      vertex 16.25 30 2
      vertex 17.5 35 0
      vertex 17.5 35 2
    endloop
  endfacet
  facet normal 0.970143 -0.242536 0
    outer loop
      vertex 16.25 30 2
      vertex 10 5 0
      vertex 17.5 35 0
    endloop
  endfacet
  facet normal 0.970143 -0.242536 0
    outer loop
      vertex 10 5 0
      vertex 16.25 30 2
      vertex 10 5 40
    endloop
  endfacet
  facet normal 0 1 -0
    outer loop
      vertex 50 5 0
      vertex 10 5 40
      vertex 50 5 40
    endloop
  endfacet
  facet normal 0 1 0
    outer loop
      vertex 10 5 40
      vertex 50 5 0
      vertex 10 5 0
    endloop
  endfacet
endsolid OpenSCAD_Model
