solid OpenSCAD_Model
  facet normal 0.951067 0.308986 0
    outer loop
      vertex 20 17 1.005
      vertex 19.4271 18.7634 -1.005
      vertex 19.4271 18.7634 1.005
    endloop
  endfacet
  facet normal 0.951067 0.308986 0
    outer loop
      vertex 19.4271 18.7634 -1.005
      vertex 20 17 1.005
      vertex 20 17 -1.005
    endloop
  endfacet
  facet normal 0 0 1
    outer loop
      vertex 17.9271 19.8532 1.005
      vertex 20 17 1.005
      vertex 19.4271 18.7634 1.005
    endloop
  endfacet
  facet normal 0 0 1
    outer loop
      vertex -20 17 1.005
      vertex 20 17 1.005
      vertex 17.9271 19.8532 1.005
    endloop
  endfacet
  facet normal 0 0 1
    outer loop
      vertex 20 17 1.005
      vertex -20 17 1.005
      vertex 20 -17 1.005
    endloop
  endfacet
  facet normal 0 0 1
    outer loop
      vertex 20 -17 1.005
      vertex 17.9271 -19.8532 1.005
      vertex 19.4271 -18.7634 1.005
    endloop
  endfacet
  facet normal 0 0 1
    outer loop
      vertex -20 17 1.005
      vertex 17.9271 19.8532 1.005
      vertex -17.9271 19.8532 1.005
    endloop
  endfacet
  facet normal 0 0 1
    outer loop
      vertex -20 -17 1.005
      vertex 20 -17 1.005
      vertex -20 17 1.005
    endloop
  endfacet
  facet normal 0 0 1
    outer loop
      vertex -20 17 1.005
      vertex -17.9271 19.8532 1.005
      vertex -19.4271 18.7634 1.005
    endloop
  endfacet
  facet normal 0 0 1
    outer loop
      vertex 20 -17 1.005
      vertex -20 -17 1.005
      vertex 17.9271 -19.8532 1.005
    endloop
  endfacet
  facet normal 0 0 1
    outer loop
      vertex 17.9271 -19.8532 1.005
      vertex -20 -17 1.005
      vertex -17.9271 -19.8532 1.005
    endloop
  endfacet
  facet normal 0 0 1
    outer loop
      vertex -17.9271 -19.8532 1.005
      vertex -20 -17 1.005
      vertex -19.4271 -18.7634 1.005
    endloop
  endfacet
  facet normal 0.58778 -0.809021 0
    outer loop
      vertex 17.9271 -19.8532 -1.005
      vertex 19.4271 -18.7634 1.005
      vertex 17.9271 -19.8532 1.005
    endloop
  endfacet
  facet normal 0.58778 -0.809021 0
    outer loop
      vertex 19.4271 -18.7634 1.005
      vertex 17.9271 -19.8532 -1.005
      vertex 19.4271 -18.7634 -1.005
    endloop
  endfacet
  facet normal 0 0 -1
    outer loop
      vertex 17.9271 -19.8532 -1.005
      vertex 20 -17 -1.005
      vertex 19.4271 -18.7634 -1.005
    endloop
  endfacet
  facet normal 0 0 -1
    outer loop
      vertex 20 -17 -1.005
      vertex 2 0 -1.005
      vertex 20 17 -1.005
    endloop
  endfacet
  facet normal -0 0 -1
    outer loop
      vertex 20 -17 -1.005
      vertex 17.9271 -19.8532 -1.005
      vertex 1.24698 -1.56366 -1.005
    endloop
  endfacet
  facet normal 0 0 -1
    outer loop
      vertex 1.24698 1.56366 -1.005
      vertex 20 17 -1.005
      vertex 2 0 -1.005
    endloop
  endfacet
  facet normal 0 -0 -1
    outer loop
      vertex 17.9271 19.8532 -1.005
      vertex 20 17 -1.005
      vertex 1.24698 1.56366 -1.005
    endloop
  endfacet
  facet normal 0 0 -1
    outer loop
      vertex 20 -17 -1.005
      vertex 1.24698 -1.56366 -1.005
      vertex 2 0 -1.005
    endloop
  endfacet
  facet normal 0 0 -1
    outer loop
      vertex 17.9271 -19.8532 -1.005
      vertex -0.445042 -1.94986 -1.005
      vertex 1.24698 -1.56366 -1.005
    endloop
  endfacet
  facet normal 0 0 -1
    outer loop
      vertex -17.9271 -19.8532 -1.005
      vertex -0.445042 -1.94986 -1.005
      vertex 17.9271 -19.8532 -1.005
    endloop
  endfacet
  facet normal 0 0 -1
    outer loop
      vertex -20 -17 -1.005
      vertex -1.80194 -0.867767 -1.005
      vertex -17.9271 -19.8532 -1.005
    endloop
  endfacet
  facet normal -0 0 -1
    outer loop
      vertex -0.445042 -1.94986 -1.005
      vertex -17.9271 -19.8532 -1.005
      vertex -1.80194 -0.867767 -1.005
    endloop
  endfacet
  facet normal 0 0 -1
    outer loop
      vertex 20 17 -1.005
      vertex 17.9271 19.8532 -1.005
      vertex 19.4271 18.7634 -1.005
    endloop
  endfacet
  facet normal 0 0 -1
    outer loop
      vertex -0.445042 1.94986 -1.005
      vertex 17.9271 19.8532 -1.005
      vertex 1.24698 1.56366 -1.005
    endloop
  endfacet
  facet normal 0 0 -1
    outer loop
      vertex -17.9271 19.8532 -1.005
      vertex -0.445042 1.94986 -1.005
      vertex -1.80194 0.867767 -1.005
    endloop
  endfacet
  facet normal 0 0 -1
    outer loop
      vertex -0.445042 1.94986 -1.005
      vertex -17.9271 19.8532 -1.005
      vertex 17.9271 19.8532 -1.005
    endloop
  endfacet
  facet normal -0 0 -1
    outer loop
      vertex -1.80194 -0.867767 -1.005
      vertex -20 -17 -1.005
      vertex -1.80194 0.867767 -1.005
    endloop
  endfacet
  facet normal 0 0 -1
    outer loop
      vertex -20 -17 -1.005
      vertex -17.9271 -19.8532 -1.005
      vertex -19.4271 -18.7634 -1.005
    endloop
  endfacet
  facet normal 0 0 -1
    outer loop
      vertex -20 17 -1.005
      vertex -1.80194 0.867767 -1.005
      vertex -20 -17 -1.005
    endloop
  endfacet
  facet normal 0 0 -1
    outer loop
      vertex -1.80194 0.867767 -1.005
      vertex -20 17 -1.005
      vertex -17.9271 19.8532 -1.005
    endloop
  endfacet
  facet normal 0 0 -1
    outer loop
      vertex -17.9271 19.8532 -1.005
      vertex -20 17 -1.005
      vertex -19.4271 18.7634 -1.005
    endloop
  endfacet
  facet normal 0 1 -0
    outer loop
      vertex 17.9271 19.8532 -1.005
      vertex -17.9271 19.8532 1.005
      vertex 17.9271 19.8532 1.005
    endloop
  endfacet
  facet normal 0 1 0
    outer loop
      vertex -17.9271 19.8532 1.005
      vertex 17.9271 19.8532 -1.005
      vertex -17.9271 19.8532 -1.005
    endloop
  endfacet
  facet normal -1 0 0
    outer loop
      vertex -20 -17 -1.005
      vertex -20 17 1.005
      vertex -20 17 -1.005
    endloop
  endfacet
  facet normal -1 -0 0
    outer loop
      vertex -20 17 1.005
      vertex -20 -17 -1.005
      vertex -20 -17 1.005
    endloop
  endfacet
  facet normal -0.951067 0.308986 0
    outer loop
      vertex -20 17 -1.005
      vertex -19.4271 18.7634 1.005
      vertex -19.4271 18.7634 -1.005
    endloop
  endfacet
  facet normal -0.951067 0.308986 0
    outer loop
      vertex -19.4271 18.7634 1.005
      vertex -20 17 -1.005
      vertex -20 17 1.005
    endloop
  endfacet
  facet normal 0 -1 0
    outer loop
      vertex -17.9271 -19.8532 -1.005
      vertex 17.9271 -19.8532 1.005
      vertex -17.9271 -19.8532 1.005
    endloop
  endfacet
  facet normal 0 -1 -0
    outer loop
      vertex 17.9271 -19.8532 1.005
      vertex -17.9271 -19.8532 -1.005
      vertex 17.9271 -19.8532 -1.005
    endloop
  endfacet
  facet normal 1 -0 0
    outer loop
      vertex 20 -17 1.005
      vertex 20 17 -1.005
      vertex 20 17 1.005
    endloop
  endfacet
  facet normal 1 0 0
    outer loop
      vertex 20 17 -1.005
      vertex 20 -17 1.005
      vertex 20 -17 -1.005
    endloop
  endfacet
  facet normal 0.951067 -0.308986 0
    outer loop
      vertex 19.4271 -18.7634 1.005
      vertex 20 -17 -1.005
      vertex 20 -17 1.005
    endloop
  endfacet
  facet normal 0.951067 -0.308986 0
    outer loop
      vertex 20 -17 -1.005
      vertex 19.4271 -18.7634 1.005
      vertex 19.4271 -18.7634 -1.005
    endloop
  endfacet
  facet normal -0.58778 0.809021 0
    outer loop
      vertex -17.9271 19.8532 -1.005
      vertex -19.4271 18.7634 1.005
      vertex -17.9271 19.8532 1.005
    endloop
  endfacet
  facet normal -0.58778 0.809021 0
    outer loop
      vertex -19.4271 18.7634 1.005
      vertex -17.9271 19.8532 -1.005
      vertex -19.4271 18.7634 -1.005
    endloop
  endfacet
  facet normal -0.951067 -0.308986 0
    outer loop
      vertex -19.4271 -18.7634 -1.005
      vertex -20 -17 1.005
      vertex -20 -17 -1.005
    endloop
  endfacet
  facet normal -0.951067 -0.308986 0
    outer loop
      vertex -20 -17 1.005
      vertex -19.4271 -18.7634 -1.005
      vertex -19.4271 -18.7634 1.005
    endloop
  endfacet
  facet normal 0.58778 0.809021 -0
    outer loop
      vertex 19.4271 18.7634 -1.005
      vertex 17.9271 19.8532 1.005
      vertex 19.4271 18.7634 1.005
    endloop
  endfacet
  facet normal 0.58778 0.809021 0
    outer loop
      vertex 17.9271 19.8532 1.005
      vertex 19.4271 18.7634 -1.005
      vertex 17.9271 19.8532 -1.005
    endloop
  endfacet
  facet normal -0.58778 -0.809021 0
    outer loop
      vertex -19.4271 -18.7634 -1.005
      vertex -17.9271 -19.8532 1.005
      vertex -19.4271 -18.7634 1.005
    endloop
  endfacet
  facet normal -0.58778 -0.809021 -0
    outer loop
      vertex -17.9271 -19.8532 1.005
      vertex -19.4271 -18.7634 -1.005
      vertex -17.9271 -19.8532 -1.005
    endloop
  endfacet
  facet normal -0.222525 -0.974927 0
    outer loop
      vertex -0.445042 1.94986 -1.005
      vertex 1.24698 1.56366 1
      vertex -0.445042 1.94986 1
    endloop
  endfacet
  facet normal -0.222525 -0.974927 -0
    outer loop
      vertex 1.24698 1.56366 1
      vertex -0.445042 1.94986 -1.005
      vertex 1.24698 1.56366 -1.005
    endloop
  endfacet
  facet normal -0.900969 -0.433884 0
    outer loop
      vertex 2 0 -1.005
      vertex 1.24698 1.56366 1
      vertex 1.24698 1.56366 -1.005
    endloop
  endfacet
  facet normal -0.900969 -0.433884 0
    outer loop
      vertex 1.24698 1.56366 1
      vertex 2 0 -1.005
      vertex 2 0 1
    endloop
  endfacet
  facet normal -0.900969 0.433884 0
    outer loop
      vertex 1.24698 -1.56366 -1.005
      vertex 2 0 1
      vertex 2 0 -1.005
    endloop
  endfacet
  facet normal -0.900969 0.433884 0
    outer loop
      vertex 2 0 1
      vertex 1.24698 -1.56366 -1.005
      vertex 1.24698 -1.56366 1
    endloop
  endfacet
  facet normal 0 0 -1
    outer loop
      vertex 1.24698 -1.56366 1
      vertex 1.24698 1.56366 1
      vertex 2 0 1
    endloop
  endfacet
  facet normal 0 0 -1
    outer loop
      vertex -0.445042 -1.94986 1
      vertex 1.24698 1.56366 1
      vertex 1.24698 -1.56366 1
    endloop
  endfacet
  facet normal 0 0 -1
    outer loop
      vertex -0.445042 -1.94986 1
      vertex -0.445042 1.94986 1
      vertex 1.24698 1.56366 1
    endloop
  endfacet
  facet normal 0 0 -1
    outer loop
      vertex -1.80194 -0.867767 1
      vertex -0.445042 1.94986 1
      vertex -0.445042 -1.94986 1
    endloop
  endfacet
  facet normal 0 0 -1
    outer loop
      vertex -0.445042 1.94986 1
      vertex -1.80194 -0.867767 1
      vertex -1.80194 0.867767 1
    endloop
  endfacet
  facet normal 0.623491 0.781831 -0
    outer loop
      vertex -0.445042 -1.94986 -1.005
      vertex -1.80194 -0.867767 1
      vertex -0.445042 -1.94986 1
    endloop
  endfacet
  facet normal 0.623491 0.781831 0
    outer loop
      vertex -1.80194 -0.867767 1
      vertex -0.445042 -1.94986 -1.005
      vertex -1.80194 -0.867767 -1.005
    endloop
  endfacet
  facet normal -0.222525 0.974927 0
    outer loop
      vertex 1.24698 -1.56366 -1.005
      vertex -0.445042 -1.94986 1
      vertex 1.24698 -1.56366 1
    endloop
  endfacet
  facet normal -0.222525 0.974927 0
    outer loop
      vertex -0.445042 -1.94986 1
      vertex 1.24698 -1.56366 -1.005
      vertex -0.445042 -1.94986 -1.005
    endloop
  endfacet
  facet normal 1 -0 0
    outer loop
      vertex -1.80194 -0.867767 1
      vertex -1.80194 0.867767 -1.005
      vertex -1.80194 0.867767 1
    endloop
  endfacet
  facet normal 1 0 0
    outer loop
      vertex -1.80194 0.867767 -1.005
      vertex -1.80194 -0.867767 1
      vertex -1.80194 -0.867767 -1.005
    endloop
  endfacet
  facet normal 0.623491 -0.781831 0
    outer loop
      vertex -1.80194 0.867767 -1.005
      vertex -0.445042 1.94986 1
      vertex -1.80194 0.867767 1
    endloop
  endfacet
  facet normal 0.623491 -0.781831 0
    outer loop
      vertex -0.445042 1.94986 1
      vertex -1.80194 0.867767 -1.005
      vertex -0.445042 1.94986 -1.005
    endloop
  endfacet
endsolid OpenSCAD_Model
