solid OpenSCAD_Model
  facet normal 1 -0 0
    outer loop
      vertex 2 2 2
      vertex 2 20 0
      vertex 2 20 2
    endloop
  endfacet
  facet normal 1 0 0
    outer loop
      vertex 2 20 0
      vertex 2 2 2
      vertex 2 2 0
    endloop
  endfacet
  facet normal 0 0 1
    outer loop
      vertex 0.209057 1.98904 2
      vertex 2 2 2
      vertex 2 20 2
    endloop
  endfacet
  facet normal 0 0 1
    outer loop
      vertex 2 2 2
      vertex 1.9563 0.415823 2
      vertex 2 0 2
    endloop
  endfacet
  facet normal 0 0 1
    outer loop
      vertex 2 2 2
      vertex 1.82709 0.813473 2
      vertex 1.9563 0.415823 2
    endloop
  endfacet
  facet normal 0 0 1
    outer loop
      vertex 2 2 2
      vertex 1.61803 1.17557 2
      vertex 1.82709 0.813473 2
    endloop
  endfacet
  facet normal 0 0 1
    outer loop
      vertex 2 2 2
      vertex 1.33826 1.48629 2
      vertex 1.61803 1.17557 2
    endloop
  endfacet
  facet normal 0 0 1
    outer loop
      vertex 2 2 2
      vertex 1 1.73205 2
      vertex 1.33826 1.48629 2
    endloop
  endfacet
  facet normal 0 0 1
    outer loop
      vertex 2 2 2
      vertex 0.618033 1.90211 2
      vertex 1 1.73205 2
    endloop
  endfacet
  facet normal 0 0 1
    outer loop
      vertex 2 2 2
      vertex 0.209057 1.98904 2
      vertex 0.618033 1.90211 2
    endloop
  endfacet
  facet normal -0 0 1
    outer loop
      vertex 0 20 2
      vertex 0.209057 1.98904 2
      vertex 2 20 2
    endloop
  endfacet
  facet normal 0 0 1
    outer loop
      vertex 0.209057 1.98904 2
      vertex 0 20 2
      vertex 0 1.98904 2
    endloop
  endfacet
  facet normal -0 0 1
    outer loop
      vertex 2 2 2
      vertex 20 0 2
      vertex 20 2 2
    endloop
  endfacet
  facet normal 0 0 1
    outer loop
      vertex 20 0 2
      vertex 2 2 2
      vertex 2 0 2
    endloop
  endfacet
  facet normal 0 0 -1
    outer loop
      vertex 2 0 0
      vertex 20 2 0
      vertex 20 0 0
    endloop
  endfacet
  facet normal 0 0 -1
    outer loop
      vertex 2 0 0
      vertex 2 2 0
      vertex 20 2 0
    endloop
  endfacet
  facet normal 0 0 -1
    outer loop
      vertex 1.9563 0.415823 0
      vertex 2 2 0
      vertex 2 0 0
    endloop
  endfacet
  facet normal 0 0 -1
    outer loop
      vertex 1.82709 0.813473 0
      vertex 2 2 0
      vertex 1.9563 0.415823 0
    endloop
  endfacet
  facet normal 0 0 -1
    outer loop
      vertex 1.61803 1.17557 0
      vertex 2 2 0
      vertex 1.82709 0.813473 0
    endloop
  endfacet
  facet normal 0 0 -1
    outer loop
      vertex 1.33826 1.48629 0
      vertex 2 2 0
      vertex 1.61803 1.17557 0
    endloop
  endfacet
  facet normal 0 0 -1
    outer loop
      vertex 1 1.73205 0
      vertex 2 2 0
      vertex 1.33826 1.48629 0
    endloop
  endfacet
  facet normal 0 0 -1
    outer loop
      vertex 0.618033 1.90211 0
      vertex 2 2 0
      vertex 1 1.73205 0
    endloop
  endfacet
  facet normal 0 0 -1
    outer loop
      vertex 0.209057 1.98904 0
      vertex 2 2 0
      vertex 0.618033 1.90211 0
    endloop
  endfacet
  facet normal -0 0 -1
    outer loop
      vertex 2 2 0
      vertex 0.209057 1.98904 0
      vertex 2 20 0
    endloop
  endfacet
  facet normal 0 0 -1
    outer loop
      vertex 0 20 0
      vertex 0.209057 1.98904 0
      vertex 0 1.98904 0
    endloop
  endfacet
  facet normal 0 0 -1
    outer loop
      vertex 0.209057 1.98904 0
      vertex 0 20 0
      vertex 2 20 0
    endloop
  endfacet
  facet normal -1 0 0
    outer loop
      vertex 0 1.98904 0
      vertex 0 20 2
      vertex 0 20 0
    endloop
  endfacet
  facet normal -1 -0 0
    outer loop
      vertex 0 20 2
      vertex 0 1.98904 0
      vertex 0 1.98904 2
    endloop
  endfacet
  facet normal 0 1 -0
    outer loop
      vertex 2 20 0
      vertex 0 20 2
      vertex 2 20 2
    endloop
  endfacet
  facet normal 0 1 0
    outer loop
      vertex 0 20 2
      vertex 2 20 0
      vertex 0 20 0
    endloop
  endfacet
  facet normal 0 -1 0
    outer loop
      vertex 2 0 0
      vertex 20 0 2
      vertex 2 0 2
    endloop
  endfacet
  facet normal 0 -1 -0
    outer loop
      vertex 20 0 2
      vertex 2 0 0
      vertex 20 0 0
    endloop
  endfacet
  facet normal 1 -0 0
    outer loop
      vertex 20 0 2
      vertex 20 2 0
      vertex 20 2 2
    endloop
  endfacet
  facet normal 1 0 0
    outer loop
      vertex 20 2 0
      vertex 20 0 2
      vertex 20 0 0
    endloop
  endfacet
  facet normal 0 1 -0
    outer loop
      vertex 20 2 0
      vertex 2 2 2
      vertex 20 2 2
    endloop
  endfacet
  facet normal 0 1 0
    outer loop
      vertex 2 2 2
      vertex 20 2 0
      vertex 2 2 0
    endloop
  endfacet
  facet normal -0.743149 -0.669126 0
    outer loop
      vertex 1.61803 1.17557 0
      vertex 1.33826 1.48629 2
      vertex 1.33826 1.48629 0
    endloop
  endfacet
  facet normal -0.743149 -0.669126 0
    outer loop
      vertex 1.33826 1.48629 2
      vertex 1.61803 1.17557 0
      vertex 1.61803 1.17557 2
    endloop
  endfacet
  facet normal -0.866022 -0.500006 0
    outer loop
      vertex 1.82709 0.813473 0
      vertex 1.61803 1.17557 2
      vertex 1.61803 1.17557 0
    endloop
  endfacet
  facet normal -0.866022 -0.500006 0
    outer loop
      vertex 1.61803 1.17557 2
      vertex 1.82709 0.813473 0
      vertex 1.82709 0.813473 2
    endloop
  endfacet
  facet normal 0 -1 0
    outer loop
      vertex 0 1.98904 0
      vertex 0.209057 1.98904 2
      vertex 0 1.98904 2
    endloop
  endfacet
  facet normal 0 -1 -0
    outer loop
      vertex 0.209057 1.98904 2
      vertex 0 1.98904 0
      vertex 0.209057 1.98904 0
    endloop
  endfacet
  facet normal -0.994523 -0.104517 0
    outer loop
      vertex 2 0 0
      vertex 1.9563 0.415823 2
      vertex 1.9563 0.415823 0
    endloop
  endfacet
  facet normal -0.994523 -0.104517 0
    outer loop
      vertex 1.9563 0.415823 2
      vertex 2 0 0
      vertex 2 0 2
    endloop
  endfacet
  facet normal -0.951053 -0.309029 0
    outer loop
      vertex 1.9563 0.415823 0
      vertex 1.82709 0.813473 2
      vertex 1.82709 0.813473 0
    endloop
  endfacet
  facet normal -0.951053 -0.309029 0
    outer loop
      vertex 1.82709 0.813473 2
      vertex 1.9563 0.415823 0
      vertex 1.9563 0.415823 2
    endloop
  endfacet
  facet normal -0.406731 -0.913548 0
    outer loop
      vertex 0.618033 1.90211 0
      vertex 1 1.73205 2
      vertex 0.618033 1.90211 2
    endloop
  endfacet
  facet normal -0.406731 -0.913548 -0
    outer loop
      vertex 1 1.73205 2
      vertex 0.618033 1.90211 0
      vertex 1 1.73205 0
    endloop
  endfacet
  facet normal -0.587785 -0.809017 0
    outer loop
      vertex 1 1.73205 0
      vertex 1.33826 1.48629 2
      vertex 1 1.73205 2
    endloop
  endfacet
  facet normal -0.587785 -0.809017 -0
    outer loop
      vertex 1.33826 1.48629 2
      vertex 1 1.73205 0
      vertex 1.33826 1.48629 0
    endloop
  endfacet
  facet normal -0.20791 -0.978148 0
    outer loop
      vertex 0.209057 1.98904 0
      vertex 0.618033 1.90211 2
      vertex 0.209057 1.98904 2
    endloop
  endfacet
  facet normal -0.20791 -0.978148 -0
    outer loop
      vertex 0.618033 1.90211 2
      vertex 0.209057 1.98904 0
      vertex 0.618033 1.90211 0
    endloop
  endfacet
  facet normal 1 -0 0
    outer loop
      vertex 2 2 7
      vertex 2 20 5
      vertex 2 20 7
    endloop
  endfacet
  facet normal 1 0 0
    outer loop
      vertex 2 20 5
      vertex 2 2 7
      vertex 2 2 5
    endloop
  endfacet
  facet normal 0 0 1
    outer loop
      vertex 0.209057 1.98904 7
      vertex 2 2 7
      vertex 2 20 7
    endloop
  endfacet
  facet normal 0 0 1
    outer loop
      vertex 2 2 7
      vertex 1.9563 0.415823 7
      vertex 2 0 7
    endloop
  endfacet
  facet normal 0 0 1
    outer loop
      vertex 2 2 7
      vertex 1.82709 0.813473 7
      vertex 1.9563 0.415823 7
    endloop
  endfacet
  facet normal 0 0 1
    outer loop
      vertex 2 2 7
      vertex 1.61803 1.17557 7
      vertex 1.82709 0.813473 7
    endloop
  endfacet
  facet normal 0 0 1
    outer loop
      vertex 2 2 7
      vertex 1.33826 1.48629 7
      vertex 1.61803 1.17557 7
    endloop
  endfacet
  facet normal 0 0 1
    outer loop
      vertex 2 2 7
      vertex 1 1.73205 7
      vertex 1.33826 1.48629 7
    endloop
  endfacet
  facet normal 0 0 1
    outer loop
      vertex 2 2 7
      vertex 0.618033 1.90211 7
      vertex 1 1.73205 7
    endloop
  endfacet
  facet normal 0 0 1
    outer loop
      vertex 2 2 7
      vertex 0.209057 1.98904 7
      vertex 0.618033 1.90211 7
    endloop
  endfacet
  facet normal -0 0 1
    outer loop
      vertex 0 20 7
      vertex 0.209057 1.98904 7
      vertex 2 20 7
    endloop
  endfacet
  facet normal 0 0 1
    outer loop
      vertex 0.209057 1.98904 7
      vertex 0 20 7
      vertex 0 1.98904 7
    endloop
  endfacet
  facet normal -0 0 1
    outer loop
      vertex 2 2 7
      vertex 20 0 7
      vertex 20 2 7
    endloop
  endfacet
  facet normal 0 0 1
    outer loop
      vertex 20 0 7
      vertex 2 2 7
      vertex 2 0 7
    endloop
  endfacet
  facet normal 0 0 -1
    outer loop
      vertex 2 0 5
      vertex 20 2 5
      vertex 20 0 5
    endloop
  endfacet
  facet normal 0 0 -1
    outer loop
      vertex 2 0 5
      vertex 2 2 5
      vertex 20 2 5
    endloop
  endfacet
  facet normal 0 0 -1
    outer loop
      vertex 1.9563 0.415823 5
      vertex 2 2 5
      vertex 2 0 5
    endloop
  endfacet
  facet normal 0 0 -1
    outer loop
      vertex 1.82709 0.813473 5
      vertex 2 2 5
      vertex 1.9563 0.415823 5
    endloop
  endfacet
  facet normal 0 0 -1
    outer loop
      vertex 1.61803 1.17557 5
      vertex 2 2 5
      vertex 1.82709 0.813473 5
    endloop
  endfacet
  facet normal 0 0 -1
    outer loop
      vertex 1.33826 1.48629 5
      vertex 2 2 5
      vertex 1.61803 1.17557 5
    endloop
  endfacet
  facet normal 0 0 -1
    outer loop
      vertex 1 1.73205 5
      vertex 2 2 5
      vertex 1.33826 1.48629 5
    endloop
  endfacet
  facet normal 0 0 -1
    outer loop
      vertex 0.618033 1.90211 5
      vertex 2 2 5
      vertex 1 1.73205 5
    endloop
  endfacet
  facet normal 0 0 -1
    outer loop
      vertex 0.209057 1.98904 5
      vertex 2 2 5
      vertex 0.618033 1.90211 5
    endloop
  endfacet
  facet normal -0 0 -1
    outer loop
      vertex 2 2 5
      vertex 0.209057 1.98904 5
      vertex 2 20 5
    endloop
  endfacet
  facet normal 0 0 -1
    outer loop
      vertex 0 20 5
      vertex 0.209057 1.98904 5
      vertex 0 1.98904 5
    endloop
  endfacet
  facet normal 0 0 -1
    outer loop
      vertex 0.209057 1.98904 5
      vertex 0 20 5
      vertex 2 20 5
    endloop
  endfacet
  facet normal -1 0 0
    outer loop
      vertex 0 1.98904 5
      vertex 0 20 7
      vertex 0 20 5
    endloop
  endfacet
  facet normal -1 -0 0
    outer loop
      vertex 0 20 7
      vertex 0 1.98904 5
      vertex 0 1.98904 7
    endloop
  endfacet
  facet normal 0 1 -0
    outer loop
      vertex 2 20 5
      vertex 0 20 7
      vertex 2 20 7
    endloop
  endfacet
  facet normal 0 1 0
    outer loop
      vertex 0 20 7
      vertex 2 20 5
      vertex 0 20 5
    endloop
  endfacet
  facet normal 0 -1 0
    outer loop
      vertex 2 0 5
      vertex 20 0 7
      vertex 2 0 7
    endloop
  endfacet
  facet normal 0 -1 -0
    outer loop
      vertex 20 0 7
      vertex 2 0 5
      vertex 20 0 5
    endloop
  endfacet
  facet normal 1 -0 0
    outer loop
      vertex 20 0 7
      vertex 20 2 5
      vertex 20 2 7
    endloop
  endfacet
  facet normal 1 0 0
    outer loop
      vertex 20 2 5
      vertex 20 0 7
      vertex 20 0 5
    endloop
  endfacet
  facet normal 0 1 -0
    outer loop
      vertex 20 2 5
      vertex 2 2 7
      vertex 20 2 7
    endloop
  endfacet
  facet normal 0 1 0
    outer loop
      vertex 2 2 7
      vertex 20 2 5
      vertex 2 2 5
    endloop
  endfacet
  facet normal -0.743149 -0.669126 0
    outer loop
      vertex 1.61803 1.17557 5
      vertex 1.33826 1.48629 7
      vertex 1.33826 1.48629 5
    endloop
  endfacet
  facet normal -0.743149 -0.669126 0
    outer loop
      vertex 1.33826 1.48629 7
      vertex 1.61803 1.17557 5
      vertex 1.61803 1.17557 7
    endloop
  endfacet
  facet normal -0.866022 -0.500006 0
    outer loop
      vertex 1.82709 0.813473 5
      vertex 1.61803 1.17557 7
      vertex 1.61803 1.17557 5
    endloop
  endfacet
  facet normal -0.866022 -0.500006 0
    outer loop
      vertex 1.61803 1.17557 7
      vertex 1.82709 0.813473 5
      vertex 1.82709 0.813473 7
    endloop
  endfacet
  facet normal 0 -1 0
    outer loop
      vertex 0 1.98904 5
      vertex 0.209057 1.98904 7
      vertex 0 1.98904 7
    endloop
  endfacet
  facet normal 0 -1 -0
    outer loop
      vertex 0.209057 1.98904 7
      vertex 0 1.98904 5
      vertex 0.209057 1.98904 5
    endloop
  endfacet
  facet normal -0.994523 -0.104517 0
    outer loop
      vertex 2 0 5
      vertex 1.9563 0.415823 7
      vertex 1.9563 0.415823 5
    endloop
  endfacet
  facet normal -0.994523 -0.104517 0
    outer loop
      vertex 1.9563 0.415823 7
      vertex 2 0 5
      vertex 2 0 7
    endloop
  endfacet
  facet normal -0.951053 -0.309029 0
    outer loop
      vertex 1.9563 0.415823 5
      vertex 1.82709 0.813473 7
      vertex 1.82709 0.813473 5
    endloop
  endfacet
  facet normal -0.951053 -0.309029 0
    outer loop
      vertex 1.82709 0.813473 7
      vertex 1.9563 0.415823 5
      vertex 1.9563 0.415823 7
    endloop
  endfacet
  facet normal -0.406731 -0.913548 0
    outer loop
      vertex 0.618033 1.90211 5
      vertex 1 1.73205 7
      vertex 0.618033 1.90211 7
    endloop
  endfacet
  facet normal -0.406731 -0.913548 -0
    outer loop
      vertex 1 1.73205 7
      vertex 0.618033 1.90211 5
      vertex 1 1.73205 5
    endloop
  endfacet
  facet normal -0.587785 -0.809017 0
    outer loop
      vertex 1 1.73205 5
      vertex 1.33826 1.48629 7
      vertex 1 1.73205 7
    endloop
  endfacet
  facet normal -0.587785 -0.809017 -0
    outer loop
      vertex 1.33826 1.48629 7
      vertex 1 1.73205 5
      vertex 1.33826 1.48629 5
    endloop
  endfacet
  facet normal -0.20791 -0.978148 0
    outer loop
      vertex 0.209057 1.98904 5
      vertex 0.618033 1.90211 7
      vertex 0.209057 1.98904 7
    endloop
  endfacet
  facet normal -0.20791 -0.978148 -0
    outer loop
      vertex 0.618033 1.90211 7
      vertex 0.209057 1.98904 5
      vertex 0.618033 1.90211 5
    endloop
  endfacet
  facet normal 1 -0 0
    outer loop
      vertex 2 2 12
      vertex 2 20 10
      vertex 2 20 12
    endloop
  endfacet
  facet normal 1 0 0
    outer loop
      vertex 2 20 10
      vertex 2 2 12
      vertex 2 2 10
    endloop
  endfacet
  facet normal 0 0 1
    outer loop
      vertex 0.209057 1.98904 12
      vertex 2 2 12
      vertex 2 20 12
    endloop
  endfacet
  facet normal 0 0 1
    outer loop
      vertex 2 2 12
      vertex 1.9563 0.415823 12
      vertex 2 0 12
    endloop
  endfacet
  facet normal 0 0 1
    outer loop
      vertex 2 2 12
      vertex 1.82709 0.813473 12
      vertex 1.9563 0.415823 12
    endloop
  endfacet
  facet normal 0 0 1
    outer loop
      vertex 2 2 12
      vertex 1.61803 1.17557 12
      vertex 1.82709 0.813473 12
    endloop
  endfacet
  facet normal 0 0 1
    outer loop
      vertex 2 2 12
      vertex 1.33826 1.48629 12
      vertex 1.61803 1.17557 12
    endloop
  endfacet
  facet normal 0 0 1
    outer loop
      vertex 2 2 12
      vertex 1 1.73205 12
      vertex 1.33826 1.48629 12
    endloop
  endfacet
  facet normal 0 0 1
    outer loop
      vertex 2 2 12
      vertex 0.618033 1.90211 12
      vertex 1 1.73205 12
    endloop
  endfacet
  facet normal 0 0 1
    outer loop
      vertex 2 2 12
      vertex 0.209057 1.98904 12
      vertex 0.618033 1.90211 12
    endloop
  endfacet
  facet normal -0 0 1
    outer loop
      vertex 0 20 12
      vertex 0.209057 1.98904 12
      vertex 2 20 12
    endloop
  endfacet
  facet normal 0 0 1
    outer loop
      vertex 0.209057 1.98904 12
      vertex 0 20 12
      vertex 0 1.98904 12
    endloop
  endfacet
  facet normal -0 0 1
    outer loop
      vertex 2 2 12
      vertex 20 0 12
      vertex 20 2 12
    endloop
  endfacet
  facet normal 0 0 1
    outer loop
      vertex 20 0 12
      vertex 2 2 12
      vertex 2 0 12
    endloop
  endfacet
  facet normal 0 0 -1
    outer loop
      vertex 2 0 10
      vertex 20 2 10
      vertex 20 0 10
    endloop
  endfacet
  facet normal 0 0 -1
    outer loop
      vertex 2 0 10
      vertex 2 2 10
      vertex 20 2 10
    endloop
  endfacet
  facet normal 0 0 -1
    outer loop
      vertex 1.9563 0.415823 10
      vertex 2 2 10
      vertex 2 0 10
    endloop
  endfacet
  facet normal 0 0 -1
    outer loop
      vertex 1.82709 0.813473 10
      vertex 2 2 10
      vertex 1.9563 0.415823 10
    endloop
  endfacet
  facet normal 0 0 -1
    outer loop
      vertex 1.61803 1.17557 10
      vertex 2 2 10
      vertex 1.82709 0.813473 10
    endloop
  endfacet
  facet normal 0 0 -1
    outer loop
      vertex 1.33826 1.48629 10
      vertex 2 2 10
      vertex 1.61803 1.17557 10
    endloop
  endfacet
  facet normal 0 0 -1
    outer loop
      vertex 1 1.73205 10
      vertex 2 2 10
      vertex 1.33826 1.48629 10
    endloop
  endfacet
  facet normal 0 0 -1
    outer loop
      vertex 0.618033 1.90211 10
      vertex 2 2 10
      vertex 1 1.73205 10
    endloop
  endfacet
  facet normal 0 0 -1
    outer loop
      vertex 0.209057 1.98904 10
      vertex 2 2 10
      vertex 0.618033 1.90211 10
    endloop
  endfacet
  facet normal -0 0 -1
    outer loop
      vertex 2 2 10
      vertex 0.209057 1.98904 10
      vertex 2 20 10
    endloop
  endfacet
  facet normal 0 0 -1
    outer loop
      vertex 0 20 10
      vertex 0.209057 1.98904 10
      vertex 0 1.98904 10
    endloop
  endfacet
  facet normal 0 0 -1
    outer loop
      vertex 0.209057 1.98904 10
      vertex 0 20 10
      vertex 2 20 10
    endloop
  endfacet
  facet normal -1 0 0
    outer loop
      vertex 0 1.98904 10
      vertex 0 20 12
      vertex 0 20 10
    endloop
  endfacet
  facet normal -1 -0 0
    outer loop
      vertex 0 20 12
      vertex 0 1.98904 10
      vertex 0 1.98904 12
    endloop
  endfacet
  facet normal 0 1 -0
    outer loop
      vertex 2 20 10
      vertex 0 20 12
      vertex 2 20 12
    endloop
  endfacet
  facet normal 0 1 0
    outer loop
      vertex 0 20 12
      vertex 2 20 10
      vertex 0 20 10
    endloop
  endfacet
  facet normal 0 -1 0
    outer loop
      vertex 2 0 10
      vertex 20 0 12
      vertex 2 0 12
    endloop
  endfacet
  facet normal 0 -1 -0
    outer loop
      vertex 20 0 12
      vertex 2 0 10
      vertex 20 0 10
    endloop
  endfacet
  facet normal 1 -0 0
    outer loop
      vertex 20 0 12
      vertex 20 2 10
      vertex 20 2 12
    endloop
  endfacet
  facet normal 1 0 0
    outer loop
      vertex 20 2 10
      vertex 20 0 12
      vertex 20 0 10
    endloop
  endfacet
  facet normal 0 1 -0
    outer loop
      vertex 20 2 10
      vertex 2 2 12
      vertex 20 2 12
    endloop
  endfacet
  facet normal 0 1 0
    outer loop
      vertex 2 2 12
      vertex 20 2 10
      vertex 2 2 10
    endloop
  endfacet
  facet normal -0.743149 -0.669126 0
    outer loop
      vertex 1.61803 1.17557 10
      vertex 1.33826 1.48629 12
      vertex 1.33826 1.48629 10
    endloop
  endfacet
  facet normal -0.743149 -0.669126 0
    outer loop
      vertex 1.33826 1.48629 12
      vertex 1.61803 1.17557 10
      vertex 1.61803 1.17557 12
    endloop
  endfacet
  facet normal -0.866022 -0.500006 0
    outer loop
      vertex 1.82709 0.813473 10
      vertex 1.61803 1.17557 12
      vertex 1.61803 1.17557 10
    endloop
  endfacet
  facet normal -0.866022 -0.500006 0
    outer loop
      vertex 1.61803 1.17557 12
      vertex 1.82709 0.813473 10
      vertex 1.82709 0.813473 12
    endloop
  endfacet
  facet normal 0 -1 0
    outer loop
      vertex 0 1.98904 10
      vertex 0.209057 1.98904 12
      vertex 0 1.98904 12
    endloop
  endfacet
  facet normal 0 -1 -0
    outer loop
      vertex 0.209057 1.98904 12
      vertex 0 1.98904 10
      vertex 0.209057 1.98904 10
    endloop
  endfacet
  facet normal -0.994523 -0.104517 0
    outer loop
      vertex 2 0 10
      vertex 1.9563 0.415823 12
      vertex 1.9563 0.415823 10
    endloop
  endfacet
  facet normal -0.994523 -0.104517 0
    outer loop
      vertex 1.9563 0.415823 12
      vertex 2 0 10
      vertex 2 0 12
    endloop
  endfacet
  facet normal -0.951053 -0.309029 0
    outer loop
      vertex 1.9563 0.415823 10
      vertex 1.82709 0.813473 12
      vertex 1.82709 0.813473 10
    endloop
  endfacet
  facet normal -0.951053 -0.309029 0
    outer loop
      vertex 1.82709 0.813473 12
      vertex 1.9563 0.415823 10
      vertex 1.9563 0.415823 12
    endloop
  endfacet
  facet normal -0.406731 -0.913548 0
    outer loop
      vertex 0.618033 1.90211 10
      vertex 1 1.73205 12
      vertex 0.618033 1.90211 12
    endloop
  endfacet
  facet normal -0.406731 -0.913548 -0
    outer loop
      vertex 1 1.73205 12
      vertex 0.618033 1.90211 10
      vertex 1 1.73205 10
    endloop
  endfacet
  facet normal -0.587785 -0.809017 0
    outer loop
      vertex 1 1.73205 10
      vertex 1.33826 1.48629 12
      vertex 1 1.73205 12
    endloop
  endfacet
  facet normal -0.587785 -0.809017 -0
    outer loop
      vertex 1.33826 1.48629 12
      vertex 1 1.73205 10
      vertex 1.33826 1.48629 10
    endloop
  endfacet
  facet normal -0.20791 -0.978148 0
    outer loop
      vertex 0.209057 1.98904 10
      vertex 0.618033 1.90211 12
      vertex 0.209057 1.98904 12
    endloop
  endfacet
  facet normal -0.20791 -0.978148 -0
    outer loop
      vertex 0.618033 1.90211 12
      vertex 0.209057 1.98904 10
      vertex 0.618033 1.90211 10
    endloop
  endfacet
  facet normal 1 -0 0
    outer loop
      vertex 2 2 17
      vertex 2 20 15
      vertex 2 20 17
    endloop
  endfacet
  facet normal 1 0 0
    outer loop
      vertex 2 20 15
      vertex 2 2 17
      vertex 2 2 15
    endloop
  endfacet
  facet normal 0 0 1
    outer loop
      vertex 0.209057 1.98904 17
      vertex 2 2 17
      vertex 2 20 17
    endloop
  endfacet
  facet normal 0 0 1
    outer loop
      vertex 2 2 17
      vertex 1.9563 0.415823 17
      vertex 2 0 17
    endloop
  endfacet
  facet normal 0 0 1
    outer loop
      vertex 2 2 17
      vertex 1.82709 0.813473 17
      vertex 1.9563 0.415823 17
    endloop
  endfacet
  facet normal 0 0 1
    outer loop
      vertex 2 2 17
      vertex 1.61803 1.17557 17
      vertex 1.82709 0.813473 17
    endloop
  endfacet
  facet normal 0 0 1
    outer loop
      vertex 2 2 17
      vertex 1.33826 1.48629 17
      vertex 1.61803 1.17557 17
    endloop
  endfacet
  facet normal 0 0 1
    outer loop
      vertex 2 2 17
      vertex 1 1.73205 17
      vertex 1.33826 1.48629 17
    endloop
  endfacet
  facet normal 0 0 1
    outer loop
      vertex 2 2 17
      vertex 0.618033 1.90211 17
      vertex 1 1.73205 17
    endloop
  endfacet
  facet normal 0 0 1
    outer loop
      vertex 2 2 17
      vertex 0.209057 1.98904 17
      vertex 0.618033 1.90211 17
    endloop
  endfacet
  facet normal -0 0 1
    outer loop
      vertex 0 20 17
      vertex 0.209057 1.98904 17
      vertex 2 20 17
    endloop
  endfacet
  facet normal 0 0 1
    outer loop
      vertex 0.209057 1.98904 17
      vertex 0 20 17
      vertex 0 1.98904 17
    endloop
  endfacet
  facet normal -0 0 1
    outer loop
      vertex 2 2 17
      vertex 20 0 17
      vertex 20 2 17
    endloop
  endfacet
  facet normal 0 0 1
    outer loop
      vertex 20 0 17
      vertex 2 2 17
      vertex 2 0 17
    endloop
  endfacet
  facet normal 0 0 -1
    outer loop
      vertex 2 0 15
      vertex 20 2 15
      vertex 20 0 15
    endloop
  endfacet
  facet normal 0 0 -1
    outer loop
      vertex 2 0 15
      vertex 2 2 15
      vertex 20 2 15
    endloop
  endfacet
  facet normal 0 0 -1
    outer loop
      vertex 1.9563 0.415823 15
      vertex 2 2 15
      vertex 2 0 15
    endloop
  endfacet
  facet normal 0 0 -1
    outer loop
      vertex 1.82709 0.813473 15
      vertex 2 2 15
      vertex 1.9563 0.415823 15
    endloop
  endfacet
  facet normal 0 0 -1
    outer loop
      vertex 1.61803 1.17557 15
      vertex 2 2 15
      vertex 1.82709 0.813473 15
    endloop
  endfacet
  facet normal 0 0 -1
    outer loop
      vertex 1.33826 1.48629 15
      vertex 2 2 15
      vertex 1.61803 1.17557 15
    endloop
  endfacet
  facet normal 0 0 -1
    outer loop
      vertex 1 1.73205 15
      vertex 2 2 15
      vertex 1.33826 1.48629 15
    endloop
  endfacet
  facet normal 0 0 -1
    outer loop
      vertex 0.618033 1.90211 15
      vertex 2 2 15
      vertex 1 1.73205 15
    endloop
  endfacet
  facet normal 0 0 -1
    outer loop
      vertex 0.209057 1.98904 15
      vertex 2 2 15
      vertex 0.618033 1.90211 15
    endloop
  endfacet
  facet normal -0 0 -1
    outer loop
      vertex 2 2 15
      vertex 0.209057 1.98904 15
      vertex 2 20 15
    endloop
  endfacet
  facet normal 0 0 -1
    outer loop
      vertex 0 20 15
      vertex 0.209057 1.98904 15
      vertex 0 1.98904 15
    endloop
  endfacet
  facet normal 0 0 -1
    outer loop
      vertex 0.209057 1.98904 15
      vertex 0 20 15
      vertex 2 20 15
    endloop
  endfacet
  facet normal -1 0 0
    outer loop
      vertex 0 1.98904 15
      vertex 0 20 17
      vertex 0 20 15
    endloop
  endfacet
  facet normal -1 -0 0
    outer loop
      vertex 0 20 17
      vertex 0 1.98904 15
      vertex 0 1.98904 17
    endloop
  endfacet
  facet normal 0 1 -0
    outer loop
      vertex 2 20 15
      vertex 0 20 17
      vertex 2 20 17
    endloop
  endfacet
  facet normal 0 1 0
    outer loop
      vertex 0 20 17
      vertex 2 20 15
      vertex 0 20 15
    endloop
  endfacet
  facet normal 0 -1 0
    outer loop
      vertex 2 0 15
      vertex 20 0 17
      vertex 2 0 17
    endloop
  endfacet
  facet normal 0 -1 -0
    outer loop
      vertex 20 0 17
      vertex 2 0 15
      vertex 20 0 15
    endloop
  endfacet
  facet normal 1 -0 0
    outer loop
      vertex 20 0 17
      vertex 20 2 15
      vertex 20 2 17
    endloop
  endfacet
  facet normal 1 0 0
    outer loop
      vertex 20 2 15
      vertex 20 0 17
      vertex 20 0 15
    endloop
  endfacet
  facet normal 0 1 -0
    outer loop
      vertex 20 2 15
      vertex 2 2 17
      vertex 20 2 17
    endloop
  endfacet
  facet normal 0 1 0
    outer loop
      vertex 2 2 17
      vertex 20 2 15
      vertex 2 2 15
    endloop
  endfacet
  facet normal -0.743149 -0.669126 0
    outer loop
      vertex 1.61803 1.17557 15
      vertex 1.33826 1.48629 17
      vertex 1.33826 1.48629 15
    endloop
  endfacet
  facet normal -0.743149 -0.669126 0
    outer loop
      vertex 1.33826 1.48629 17
      vertex 1.61803 1.17557 15
      vertex 1.61803 1.17557 17
    endloop
  endfacet
  facet normal -0.866022 -0.500006 0
    outer loop
      vertex 1.82709 0.813473 15
      vertex 1.61803 1.17557 17
      vertex 1.61803 1.17557 15
    endloop
  endfacet
  facet normal -0.866022 -0.500006 0
    outer loop
      vertex 1.61803 1.17557 17
      vertex 1.82709 0.813473 15
      vertex 1.82709 0.813473 17
    endloop
  endfacet
  facet normal 0 -1 0
    outer loop
      vertex 0 1.98904 15
      vertex 0.209057 1.98904 17
      vertex 0 1.98904 17
    endloop
  endfacet
  facet normal 0 -1 -0
    outer loop
      vertex 0.209057 1.98904 17
      vertex 0 1.98904 15
      vertex 0.209057 1.98904 15
    endloop
  endfacet
  facet normal -0.994523 -0.104517 0
    outer loop
      vertex 2 0 15
      vertex 1.9563 0.415823 17
      vertex 1.9563 0.415823 15
    endloop
  endfacet
  facet normal -0.994523 -0.104517 0
    outer loop
      vertex 1.9563 0.415823 17
      vertex 2 0 15
      vertex 2 0 17
    endloop
  endfacet
  facet normal -0.951053 -0.309029 0
    outer loop
      vertex 1.9563 0.415823 15
      vertex 1.82709 0.813473 17
      vertex 1.82709 0.813473 15
    endloop
  endfacet
  facet normal -0.951053 -0.309029 0
    outer loop
      vertex 1.82709 0.813473 17
      vertex 1.9563 0.415823 15
      vertex 1.9563 0.415823 17
    endloop
  endfacet
  facet normal -0.406731 -0.913548 0
    outer loop
      vertex 0.618033 1.90211 15
      vertex 1 1.73205 17
      vertex 0.618033 1.90211 17
    endloop
  endfacet
  facet normal -0.406731 -0.913548 -0
    outer loop
      vertex 1 1.73205 17
      vertex 0.618033 1.90211 15
      vertex 1 1.73205 15
    endloop
  endfacet
  facet normal -0.587785 -0.809017 0
    outer loop
      vertex 1 1.73205 15
      vertex 1.33826 1.48629 17
      vertex 1 1.73205 17
    endloop
  endfacet
  facet normal -0.587785 -0.809017 -0
    outer loop
      vertex 1.33826 1.48629 17
      vertex 1 1.73205 15
      vertex 1.33826 1.48629 15
    endloop
  endfacet
  facet normal -0.20791 -0.978148 0
    outer loop
      vertex 0.209057 1.98904 15
      vertex 0.618033 1.90211 17
      vertex 0.209057 1.98904 17
    endloop
  endfacet
  facet normal -0.20791 -0.978148 -0
    outer loop
      vertex 0.618033 1.90211 17
      vertex 0.209057 1.98904 15
      vertex 0.618033 1.90211 15
    endloop
  endfacet
  facet normal 1 -0 0
    outer loop
      vertex 2 2 22
      vertex 2 20 20
      vertex 2 20 22
    endloop
  endfacet
  facet normal 1 0 0
    outer loop
      vertex 2 20 20
      vertex 2 2 22
      vertex 2 2 20
    endloop
  endfacet
  facet normal 0 0 1
    outer loop
      vertex 0.209057 1.98904 22
      vertex 2 2 22
      vertex 2 20 22
    endloop
  endfacet
  facet normal 0 0 1
    outer loop
      vertex 2 2 22
      vertex 1.9563 0.415823 22
      vertex 2 0 22
    endloop
  endfacet
  facet normal 0 0 1
    outer loop
      vertex 2 2 22
      vertex 1.82709 0.813473 22
      vertex 1.9563 0.415823 22
    endloop
  endfacet
  facet normal 0 0 1
    outer loop
      vertex 2 2 22
      vertex 1.61803 1.17557 22
      vertex 1.82709 0.813473 22
    endloop
  endfacet
  facet normal 0 0 1
    outer loop
      vertex 2 2 22
      vertex 1.33826 1.48629 22
      vertex 1.61803 1.17557 22
    endloop
  endfacet
  facet normal 0 0 1
    outer loop
      vertex 2 2 22
      vertex 1 1.73205 22
      vertex 1.33826 1.48629 22
    endloop
  endfacet
  facet normal 0 0 1
    outer loop
      vertex 2 2 22
      vertex 0.618033 1.90211 22
      vertex 1 1.73205 22
    endloop
  endfacet
  facet normal 0 0 1
    outer loop
      vertex 2 2 22
      vertex 0.209057 1.98904 22
      vertex 0.618033 1.90211 22
    endloop
  endfacet
  facet normal -0 0 1
    outer loop
      vertex 0 20 22
      vertex 0.209057 1.98904 22
      vertex 2 20 22
    endloop
  endfacet
  facet normal 0 0 1
    outer loop
      vertex 0.209057 1.98904 22
      vertex 0 20 22
      vertex 0 1.98904 22
    endloop
  endfacet
  facet normal -0 0 1
    outer loop
      vertex 2 2 22
      vertex 20 0 22
      vertex 20 2 22
    endloop
  endfacet
  facet normal 0 0 1
    outer loop
      vertex 20 0 22
      vertex 2 2 22
      vertex 2 0 22
    endloop
  endfacet
  facet normal 0 0 -1
    outer loop
      vertex 2 0 20
      vertex 20 2 20
      vertex 20 0 20
    endloop
  endfacet
  facet normal 0 0 -1
    outer loop
      vertex 2 0 20
      vertex 2 2 20
      vertex 20 2 20
    endloop
  endfacet
  facet normal 0 0 -1
    outer loop
      vertex 1.9563 0.415823 20
      vertex 2 2 20
      vertex 2 0 20
    endloop
  endfacet
  facet normal 0 0 -1
    outer loop
      vertex 1.82709 0.813473 20
      vertex 2 2 20
      vertex 1.9563 0.415823 20
    endloop
  endfacet
  facet normal 0 0 -1
    outer loop
      vertex 1.61803 1.17557 20
      vertex 2 2 20
      vertex 1.82709 0.813473 20
    endloop
  endfacet
  facet normal 0 0 -1
    outer loop
      vertex 1.33826 1.48629 20
      vertex 2 2 20
      vertex 1.61803 1.17557 20
    endloop
  endfacet
  facet normal 0 0 -1
    outer loop
      vertex 1 1.73205 20
      vertex 2 2 20
      vertex 1.33826 1.48629 20
    endloop
  endfacet
  facet normal 0 0 -1
    outer loop
      vertex 0.618033 1.90211 20
      vertex 2 2 20
      vertex 1 1.73205 20
    endloop
  endfacet
  facet normal 0 0 -1
    outer loop
      vertex 0.209057 1.98904 20
      vertex 2 2 20
      vertex 0.618033 1.90211 20
    endloop
  endfacet
  facet normal -0 0 -1
    outer loop
      vertex 2 2 20
      vertex 0.209057 1.98904 20
      vertex 2 20 20
    endloop
  endfacet
  facet normal 0 0 -1
    outer loop
      vertex 0 20 20
      vertex 0.209057 1.98904 20
      vertex 0 1.98904 20
    endloop
  endfacet
  facet normal 0 0 -1
    outer loop
      vertex 0.209057 1.98904 20
      vertex 0 20 20
      vertex 2 20 20
    endloop
  endfacet
  facet normal -1 0 0
    outer loop
      vertex 0 1.98904 20
      vertex 0 20 22
      vertex 0 20 20
    endloop
  endfacet
  facet normal -1 -0 0
    outer loop
      vertex 0 20 22
      vertex 0 1.98904 20
      vertex 0 1.98904 22
    endloop
  endfacet
  facet normal 0 1 -0
    outer loop
      vertex 2 20 20
      vertex 0 20 22
      vertex 2 20 22
    endloop
  endfacet
  facet normal 0 1 0
    outer loop
      vertex 0 20 22
      vertex 2 20 20
      vertex 0 20 20
    endloop
  endfacet
  facet normal 0 -1 0
    outer loop
      vertex 2 0 20
      vertex 20 0 22
      vertex 2 0 22
    endloop
  endfacet
  facet normal 0 -1 -0
    outer loop
      vertex 20 0 22
      vertex 2 0 20
      vertex 20 0 20
    endloop
  endfacet
  facet normal 1 -0 0
    outer loop
      vertex 20 0 22
      vertex 20 2 20
      vertex 20 2 22
    endloop
  endfacet
  facet normal 1 0 0
    outer loop
      vertex 20 2 20
      vertex 20 0 22
      vertex 20 0 20
    endloop
  endfacet
  facet normal 0 1 -0
    outer loop
      vertex 20 2 20
      vertex 2 2 22
      vertex 20 2 22
    endloop
  endfacet
  facet normal 0 1 0
    outer loop
      vertex 2 2 22
      vertex 20 2 20
      vertex 2 2 20
    endloop
  endfacet
  facet normal -0.743149 -0.669126 0
    outer loop
      vertex 1.61803 1.17557 20
      vertex 1.33826 1.48629 22
      vertex 1.33826 1.48629 20
    endloop
  endfacet
  facet normal -0.743149 -0.669126 0
    outer loop
      vertex 1.33826 1.48629 22
      vertex 1.61803 1.17557 20
      vertex 1.61803 1.17557 22
    endloop
  endfacet
  facet normal -0.866022 -0.500006 0
    outer loop
      vertex 1.82709 0.813473 20
      vertex 1.61803 1.17557 22
      vertex 1.61803 1.17557 20
    endloop
  endfacet
  facet normal -0.866022 -0.500006 0
    outer loop
      vertex 1.61803 1.17557 22
      vertex 1.82709 0.813473 20
      vertex 1.82709 0.813473 22
    endloop
  endfacet
  facet normal 0 -1 0
    outer loop
      vertex 0 1.98904 20
      vertex 0.209057 1.98904 22
      vertex 0 1.98904 22
    endloop
  endfacet
  facet normal 0 -1 -0
    outer loop
      vertex 0.209057 1.98904 22
      vertex 0 1.98904 20
      vertex 0.209057 1.98904 20
    endloop
  endfacet
  facet normal -0.994523 -0.104517 0
    outer loop
      vertex 2 0 20
      vertex 1.9563 0.415823 22
      vertex 1.9563 0.415823 20
    endloop
  endfacet
  facet normal -0.994523 -0.104517 0
    outer loop
      vertex 1.9563 0.415823 22
      vertex 2 0 20
      vertex 2 0 22
    endloop
  endfacet
  facet normal -0.951053 -0.309029 0
    outer loop
      vertex 1.9563 0.415823 20
      vertex 1.82709 0.813473 22
      vertex 1.82709 0.813473 20
    endloop
  endfacet
  facet normal -0.951053 -0.309029 0
    outer loop
      vertex 1.82709 0.813473 22
      vertex 1.9563 0.415823 20
      vertex 1.9563 0.415823 22
    endloop
  endfacet
  facet normal -0.406731 -0.913548 0
    outer loop
      vertex 0.618033 1.90211 20
      vertex 1 1.73205 22
      vertex 0.618033 1.90211 22
    endloop
  endfacet
  facet normal -0.406731 -0.913548 -0
    outer loop
      vertex 1 1.73205 22
      vertex 0.618033 1.90211 20
      vertex 1 1.73205 20
    endloop
  endfacet
  facet normal -0.587785 -0.809017 0
    outer loop
      vertex 1 1.73205 20
      vertex 1.33826 1.48629 22
      vertex 1 1.73205 22
    endloop
  endfacet
  facet normal -0.587785 -0.809017 -0
    outer loop
      vertex 1.33826 1.48629 22
      vertex 1 1.73205 20
      vertex 1.33826 1.48629 20
    endloop
  endfacet
  facet normal -0.20791 -0.978148 0
    outer loop
      vertex 0.209057 1.98904 20
      vertex 0.618033 1.90211 22
      vertex 0.209057 1.98904 22
    endloop
  endfacet
  facet normal -0.20791 -0.978148 -0
    outer loop
      vertex 0.618033 1.90211 22
      vertex 0.209057 1.98904 20
      vertex 0.618033 1.90211 20
    endloop
  endfacet
  facet normal 1 -0 0
    outer loop
      vertex 2 2 27
      vertex 2 20 25
      vertex 2 20 27
    endloop
  endfacet
  facet normal 1 0 0
    outer loop
      vertex 2 20 25
      vertex 2 2 27
      vertex 2 2 25
    endloop
  endfacet
  facet normal 0 0 1
    outer loop
      vertex 0.209057 1.98904 27
      vertex 2 2 27
      vertex 2 20 27
    endloop
  endfacet
  facet normal 0 0 1
    outer loop
      vertex 2 2 27
      vertex 1.9563 0.415823 27
      vertex 2 0 27
    endloop
  endfacet
  facet normal 0 0 1
    outer loop
      vertex 2 2 27
      vertex 1.82709 0.813473 27
      vertex 1.9563 0.415823 27
    endloop
  endfacet
  facet normal 0 0 1
    outer loop
      vertex 2 2 27
      vertex 1.61803 1.17557 27
      vertex 1.82709 0.813473 27
    endloop
  endfacet
  facet normal 0 0 1
    outer loop
      vertex 2 2 27
      vertex 1.33826 1.48629 27
      vertex 1.61803 1.17557 27
    endloop
  endfacet
  facet normal 0 0 1
    outer loop
      vertex 2 2 27
      vertex 1 1.73205 27
      vertex 1.33826 1.48629 27
    endloop
  endfacet
  facet normal 0 0 1
    outer loop
      vertex 2 2 27
      vertex 0.618033 1.90211 27
      vertex 1 1.73205 27
    endloop
  endfacet
  facet normal 0 0 1
    outer loop
      vertex 2 2 27
      vertex 0.209057 1.98904 27
      vertex 0.618033 1.90211 27
    endloop
  endfacet
  facet normal -0 0 1
    outer loop
      vertex 0 20 27
      vertex 0.209057 1.98904 27
      vertex 2 20 27
    endloop
  endfacet
  facet normal 0 0 1
    outer loop
      vertex 0.209057 1.98904 27
      vertex 0 20 27
      vertex 0 1.98904 27
    endloop
  endfacet
  facet normal -0 0 1
    outer loop
      vertex 2 2 27
      vertex 20 0 27
      vertex 20 2 27
    endloop
  endfacet
  facet normal 0 0 1
    outer loop
      vertex 20 0 27
      vertex 2 2 27
      vertex 2 0 27
    endloop
  endfacet
  facet normal 0 0 -1
    outer loop
      vertex 2 0 25
      vertex 20 2 25
      vertex 20 0 25
    endloop
  endfacet
  facet normal 0 0 -1
    outer loop
      vertex 2 0 25
      vertex 2 2 25
      vertex 20 2 25
    endloop
  endfacet
  facet normal 0 0 -1
    outer loop
      vertex 1.9563 0.415823 25
      vertex 2 2 25
      vertex 2 0 25
    endloop
  endfacet
  facet normal 0 0 -1
    outer loop
      vertex 1.82709 0.813473 25
      vertex 2 2 25
      vertex 1.9563 0.415823 25
    endloop
  endfacet
  facet normal 0 0 -1
    outer loop
      vertex 1.61803 1.17557 25
      vertex 2 2 25
      vertex 1.82709 0.813473 25
    endloop
  endfacet
  facet normal 0 0 -1
    outer loop
      vertex 1.33826 1.48629 25
      vertex 2 2 25
      vertex 1.61803 1.17557 25
    endloop
  endfacet
  facet normal 0 0 -1
    outer loop
      vertex 1 1.73205 25
      vertex 2 2 25
      vertex 1.33826 1.48629 25
    endloop
  endfacet
  facet normal 0 0 -1
    outer loop
      vertex 0.618033 1.90211 25
      vertex 2 2 25
      vertex 1 1.73205 25
    endloop
  endfacet
  facet normal 0 0 -1
    outer loop
      vertex 0.209057 1.98904 25
      vertex 2 2 25
      vertex 0.618033 1.90211 25
    endloop
  endfacet
  facet normal -0 0 -1
    outer loop
      vertex 2 2 25
      vertex 0.209057 1.98904 25
      vertex 2 20 25
    endloop
  endfacet
  facet normal 0 0 -1
    outer loop
      vertex 0 20 25
      vertex 0.209057 1.98904 25
      vertex 0 1.98904 25
    endloop
  endfacet
  facet normal 0 0 -1
    outer loop
      vertex 0.209057 1.98904 25
      vertex 0 20 25
      vertex 2 20 25
    endloop
  endfacet
  facet normal -1 0 0
    outer loop
      vertex 0 1.98904 25
      vertex 0 20 27
      vertex 0 20 25
    endloop
  endfacet
  facet normal -1 -0 0
    outer loop
      vertex 0 20 27
      vertex 0 1.98904 25
      vertex 0 1.98904 27
    endloop
  endfacet
  facet normal 0 1 -0
    outer loop
      vertex 2 20 25
      vertex 0 20 27
      vertex 2 20 27
    endloop
  endfacet
  facet normal 0 1 0
    outer loop
      vertex 0 20 27
      vertex 2 20 25
      vertex 0 20 25
    endloop
  endfacet
  facet normal 0 -1 0
    outer loop
      vertex 2 0 25
      vertex 20 0 27
      vertex 2 0 27
    endloop
  endfacet
  facet normal 0 -1 -0
    outer loop
      vertex 20 0 27
      vertex 2 0 25
      vertex 20 0 25
    endloop
  endfacet
  facet normal 1 -0 0
    outer loop
      vertex 20 0 27
      vertex 20 2 25
      vertex 20 2 27
    endloop
  endfacet
  facet normal 1 0 0
    outer loop
      vertex 20 2 25
      vertex 20 0 27
      vertex 20 0 25
    endloop
  endfacet
  facet normal 0 1 -0
    outer loop
      vertex 20 2 25
      vertex 2 2 27
      vertex 20 2 27
    endloop
  endfacet
  facet normal 0 1 0
    outer loop
      vertex 2 2 27
      vertex 20 2 25
      vertex 2 2 25
    endloop
  endfacet
  facet normal -0.743149 -0.669126 0
    outer loop
      vertex 1.61803 1.17557 25
      vertex 1.33826 1.48629 27
      vertex 1.33826 1.48629 25
    endloop
  endfacet
  facet normal -0.743149 -0.669126 0
    outer loop
      vertex 1.33826 1.48629 27
      vertex 1.61803 1.17557 25
      vertex 1.61803 1.17557 27
    endloop
  endfacet
  facet normal -0.866022 -0.500006 0
    outer loop
      vertex 1.82709 0.813473 25
      vertex 1.61803 1.17557 27
      vertex 1.61803 1.17557 25
    endloop
  endfacet
  facet normal -0.866022 -0.500006 0
    outer loop
      vertex 1.61803 1.17557 27
      vertex 1.82709 0.813473 25
      vertex 1.82709 0.813473 27
    endloop
  endfacet
  facet normal 0 -1 0
    outer loop
      vertex 0 1.98904 25
      vertex 0.209057 1.98904 27
      vertex 0 1.98904 27
    endloop
  endfacet
  facet normal 0 -1 -0
    outer loop
      vertex 0.209057 1.98904 27
      vertex 0 1.98904 25
      vertex 0.209057 1.98904 25
    endloop
  endfacet
  facet normal -0.994523 -0.104517 0
    outer loop
      vertex 2 0 25
      vertex 1.9563 0.415823 27
      vertex 1.9563 0.415823 25
    endloop
  endfacet
  facet normal -0.994523 -0.104517 0
    outer loop
      vertex 1.9563 0.415823 27
      vertex 2 0 25
      vertex 2 0 27
    endloop
  endfacet
  facet normal -0.951053 -0.309029 0
    outer loop
      vertex 1.9563 0.415823 25
      vertex 1.82709 0.813473 27
      vertex 1.82709 0.813473 25
    endloop
  endfacet
  facet normal -0.951053 -0.309029 0
    outer loop
      vertex 1.82709 0.813473 27
      vertex 1.9563 0.415823 25
      vertex 1.9563 0.415823 27
    endloop
  endfacet
  facet normal -0.406731 -0.913548 0
    outer loop
      vertex 0.618033 1.90211 25
      vertex 1 1.73205 27
      vertex 0.618033 1.90211 27
    endloop
  endfacet
  facet normal -0.406731 -0.913548 -0
    outer loop
      vertex 1 1.73205 27
      vertex 0.618033 1.90211 25
      vertex 1 1.73205 25
    endloop
  endfacet
  facet normal -0.587785 -0.809017 0
    outer loop
      vertex 1 1.73205 25
      vertex 1.33826 1.48629 27
      vertex 1 1.73205 27
    endloop
  endfacet
  facet normal -0.587785 -0.809017 -0
    outer loop
      vertex 1.33826 1.48629 27
      vertex 1 1.73205 25
      vertex 1.33826 1.48629 25
    endloop
  endfacet
  facet normal -0.20791 -0.978148 0
    outer loop
      vertex 0.209057 1.98904 25
      vertex 0.618033 1.90211 27
      vertex 0.209057 1.98904 27
    endloop
  endfacet
  facet normal -0.20791 -0.978148 -0
    outer loop
      vertex 0.618033 1.90211 27
      vertex 0.209057 1.98904 25
      vertex 0.618033 1.90211 25
    endloop
  endfacet
endsolid OpenSCAD_Model
