solid OpenSCAD_Model
  facet normal -0 0 -1
    outer loop
      vertex 5 9 0
      vertex -1 8 0
      vertex 0 9 0
    endloop
  endfacet
  facet normal -0 0 -1
    outer loop
      vertex 10 4 0
      vertex 6 1 0
      vertex 5 9 0
    endloop
  endfacet
  facet normal 0 -0 -1
    outer loop
      vertex 5 9 0
      vertex 6 1 0
      vertex -1 8 0
    endloop
  endfacet
  facet normal 0 0 -1
    outer loop
      vertex -1 8 0
      vertex 6 1 0
      vertex -1 1 0
    endloop
  endfacet
  facet normal 0 0 -1
    outer loop
      vertex -1 1 0
      vertex 6 1 0
      vertex 5 0 0
    endloop
  endfacet
  facet normal 0 0 -1
    outer loop
      vertex 0 0 0
      vertex -1 1 0
      vertex 5 0 0
    endloop
  endfacet
  facet normal -0 0 1
    outer loop
      vertex 0 9 3
      vertex -1 8 3
      vertex 5 9 3
    endloop
  endfacet
  facet normal 0 0 1
    outer loop
      vertex 5 9 3
      vertex 6 1 3
      vertex 10 4 3
    endloop
  endfacet
  facet normal -0 0 1
    outer loop
      vertex -1 8 3
      vertex 6 1 3
      vertex 5 9 3
    endloop
  endfacet
  facet normal 0 0 1
    outer loop
      vertex -1 1 3
      vertex 6 1 3
      vertex -1 8 3
    endloop
  endfacet
  facet normal 0 -0 1
    outer loop
      vertex 5 0 3
      vertex 6 1 3
      vertex -1 1 3
    endloop
  endfacet
  facet normal 0 0 1
    outer loop
      vertex 5 0 3
      vertex -1 1 3
      vertex 0 0 3
    endloop
  endfacet
  facet normal 0.6 -0.8 0
    outer loop
      vertex 10 4 0
      vertex 6 1 3
      vertex 6 1 0
    endloop
  endfacet
  facet normal 0.6 -0.8 0
    outer loop
      vertex 10 4 0
      vertex 10 4 3
      vertex 6 1 3
    endloop
  endfacet
  facet normal 0.707107 0.707107 0
    outer loop
      vertex 5 9 0
      vertex 10 4 3
      vertex 10 4 0
    endloop
  endfacet
  facet normal 0.707107 0.707107 -0
    outer loop
      vertex 5 9 0
      vertex 5 9 3
      vertex 10 4 3
    endloop
  endfacet
  facet normal 0 1 0
    outer loop
      vertex 0 9 0
      vertex 5 9 3
      vertex 5 9 0
    endloop
  endfacet
  facet normal 0 1 0
    outer loop
      vertex 0 9 0
      vertex 0 9 3
      vertex 5 9 3
    endloop
  endfacet
  facet normal -0.707107 0.707107 0
    outer loop
      vertex -1 8 0
      vertex 0 9 3
      vertex 0 9 0
    endloop
  endfacet
  facet normal -0.707107 0.707107 0
    outer loop
      vertex -1 8 0
      vertex -1 8 3
      vertex 0 9 3
    endloop
  endfacet
  facet normal -1 0 0
    outer loop
      vertex -1 1 0
      vertex -1 8 3
      vertex -1 8 0
    endloop
  endfacet
  facet normal -1 0 0
    outer loop
      vertex -1 1 0
      vertex -1 1 3
      vertex -1 8 3
    endloop
  endfacet
  facet normal -0.707107 -0.707107 0
    outer loop
      vertex 0 0 0
      vertex -1 1 3
      vertex -1 1 0
    endloop
  endfacet
  facet normal -0.707107 -0.707107 0
    outer loop
      vertex 0 0 0
      vertex 0 0 3
      vertex -1 1 3
    endloop
  endfacet
  facet normal 0 -1 0
    outer loop
      vertex 5 0 0
      vertex 0 0 3
      vertex 0 0 0
    endloop
  endfacet
  facet normal 0 -1 0
    outer loop
      vertex 5 0 0
      vertex 5 0 3
      vertex 0 0 3
    endloop
  endfacet
  facet normal 0.707107 -0.707107 0
    outer loop
      vertex 6 1 0
      vertex 5 0 3
      vertex 5 0 0
    endloop
  endfacet
  facet normal 0.707107 -0.707107 0
    outer loop
      vertex 6 1 0
      vertex 6 1 3
      vertex 5 0 3
    endloop
  endfacet
endsolid OpenSCAD_Model
